<svg width="40" height="13" viewBox="0 0 40 13" fill="none" xmlns="http://www.w3.org/2000/svg">
<path d="M5.43359 8.61963C5.43359 8.23031 5.29606 7.90234 5.021 7.63574C4.75016 7.36914 4.29102 7.12793 3.64355 6.91211C2.74219 6.63704 2.08415 6.27946 1.66943 5.83936C1.25895 5.39502 1.05371 4.83219 1.05371 4.15088C1.05371 3.45687 1.25472 2.8877 1.65674 2.44336C2.06299 1.99902 2.61947 1.73454 3.32617 1.6499V0.259766H4.27197V1.65625C4.98291 1.75358 5.53516 2.05192 5.92871 2.55127C6.3265 3.05062 6.52539 3.73405 6.52539 4.60156H5.35742C5.35742 4.00488 5.21566 3.53092 4.93213 3.17969C4.6486 2.82845 4.26562 2.65283 3.7832 2.65283C3.27962 2.65283 2.89453 2.78402 2.62793 3.04639C2.36133 3.30452 2.22803 3.66634 2.22803 4.13184C2.22803 4.56348 2.36768 4.90837 2.64697 5.1665C2.9305 5.42041 3.39388 5.65316 4.03711 5.86475C4.68457 6.0721 5.18815 6.30273 5.54785 6.55664C5.91178 6.80632 6.17839 7.09831 6.34766 7.43262C6.52116 7.76693 6.60791 8.15837 6.60791 8.60693C6.60791 9.3221 6.39209 9.89762 5.96045 10.3335C5.53304 10.7694 4.93213 11.0275 4.15771 11.1079V12.3203H3.21826V11.1079C2.43115 11.036 1.81331 10.7567 1.36475 10.27C0.92041 9.77913 0.698242 9.11475 0.698242 8.27686H1.87256C1.87256 8.86507 2.02702 9.31787 2.33594 9.63525C2.64486 9.95264 3.08285 10.1113 3.6499 10.1113C4.20426 10.1113 4.64014 9.97803 4.95752 9.71143C5.2749 9.44482 5.43359 9.08089 5.43359 8.61963ZM13.6729 4.16992C13.6729 4.63118 13.5501 5.04167 13.3047 5.40137C13.0635 5.76107 12.7355 6.04248 12.3208 6.24561C12.8032 6.45296 13.1841 6.75553 13.4634 7.15332C13.7469 7.55111 13.8887 8.00179 13.8887 8.50537C13.8887 9.30518 13.6178 9.94206 13.0762 10.416C12.5387 10.89 11.8299 11.127 10.9497 11.127C10.061 11.127 9.34798 10.89 8.81055 10.416C8.27734 9.93783 8.01074 9.30094 8.01074 8.50537C8.01074 8.00602 8.14616 7.55534 8.41699 7.15332C8.69206 6.7513 9.0708 6.44661 9.55322 6.23926C9.14274 6.03613 8.81901 5.75472 8.58203 5.39502C8.34505 5.03532 8.22656 4.62695 8.22656 4.16992C8.22656 3.39128 8.47624 2.77344 8.97559 2.31641C9.47493 1.85938 10.133 1.63086 10.9497 1.63086C11.7622 1.63086 12.4181 1.85938 12.9175 2.31641C13.4211 2.77344 13.6729 3.39128 13.6729 4.16992ZM12.7144 8.47998C12.7144 7.9637 12.5493 7.54264 12.2192 7.2168C11.8934 6.89095 11.466 6.72803 10.937 6.72803C10.408 6.72803 9.98275 6.88883 9.66113 7.21045C9.34375 7.53206 9.18506 7.95524 9.18506 8.47998C9.18506 9.00472 9.33952 9.41732 9.64844 9.71777C9.96159 10.0182 10.3953 10.1685 10.9497 10.1685C11.4998 10.1685 11.9315 10.0182 12.2446 9.71777C12.5578 9.41309 12.7144 9.00049 12.7144 8.47998ZM10.9497 2.5957C10.4884 2.5957 10.1139 2.73958 9.82617 3.02734C9.54264 3.31087 9.40088 3.69808 9.40088 4.18896C9.40088 4.65869 9.54053 5.03955 9.81982 5.33154C10.1034 5.6193 10.48 5.76318 10.9497 5.76318C11.4194 5.76318 11.7939 5.6193 12.0732 5.33154C12.3568 5.03955 12.4985 4.65869 12.4985 4.18896C12.4985 3.71924 12.3525 3.33626 12.0605 3.04004C11.7686 2.74382 11.3983 2.5957 10.9497 2.5957ZM19.8682 6.9375C19.6227 7.22949 19.3286 7.46436 18.9858 7.64209C18.6473 7.81982 18.2749 7.90869 17.8687 7.90869C17.3354 7.90869 16.87 7.77751 16.4722 7.51514C16.0786 7.25277 15.7739 6.8846 15.5581 6.41064C15.3423 5.93245 15.2344 5.4056 15.2344 4.83008C15.2344 4.21224 15.3507 3.65576 15.5835 3.16064C15.8205 2.66553 16.1548 2.28678 16.5864 2.02441C17.0181 1.76204 17.5216 1.63086 18.0972 1.63086C19.0112 1.63086 19.7306 1.97363 20.2554 2.65918C20.7843 3.34049 21.0488 4.27148 21.0488 5.45215V5.79492C21.0488 7.59342 20.6934 8.90739 19.9824 9.73682C19.2715 10.562 18.1987 10.9852 16.7642 11.0063H16.5356V10.0161H16.7832C17.7523 9.99919 18.4971 9.7474 19.0176 9.26074C19.5381 8.76986 19.8216 7.99544 19.8682 6.9375ZM18.0591 6.9375C18.4526 6.9375 18.8145 6.81689 19.1445 6.57568C19.4788 6.33447 19.7222 6.03613 19.8745 5.68066V5.21094C19.8745 4.44076 19.7074 3.81445 19.373 3.33203C19.0387 2.84961 18.6156 2.6084 18.1035 2.6084C17.5872 2.6084 17.1725 2.80729 16.8594 3.20508C16.5462 3.59863 16.3896 4.11914 16.3896 4.7666C16.3896 5.39714 16.5399 5.91764 16.8403 6.32812C17.145 6.73438 17.5513 6.9375 18.0591 6.9375ZM22.8135 10.3843C22.8135 10.1812 22.8727 10.0119 22.9912 9.87646C23.1139 9.74105 23.2959 9.67334 23.5371 9.67334C23.7783 9.67334 23.9603 9.74105 24.083 9.87646C24.21 10.0119 24.2734 10.1812 24.2734 10.3843C24.2734 10.5789 24.21 10.7419 24.083 10.873C23.9603 11.0042 23.7783 11.0698 23.5371 11.0698C23.2959 11.0698 23.1139 11.0042 22.9912 10.873C22.8727 10.7419 22.8135 10.5789 22.8135 10.3843ZM31.8906 7.05811C31.8906 8.43343 31.6558 9.4554 31.186 10.124C30.7163 10.7926 29.9821 11.127 28.9834 11.127C27.9974 11.127 27.2674 10.8011 26.7935 10.1494C26.3195 9.49349 26.0741 8.51595 26.0571 7.2168V5.64893C26.0571 4.29053 26.292 3.28125 26.7617 2.62109C27.2314 1.96094 27.9678 1.63086 28.9707 1.63086C29.9652 1.63086 30.6973 1.95036 31.167 2.58936C31.6367 3.22412 31.8779 4.20589 31.8906 5.53467V7.05811ZM30.7163 5.45215C30.7163 4.45768 30.5767 3.73405 30.2974 3.28125C30.0181 2.82422 29.5758 2.5957 28.9707 2.5957C28.3698 2.5957 27.9318 2.8221 27.6567 3.2749C27.3817 3.7277 27.2399 4.42383 27.2314 5.36328V7.24219C27.2314 8.24089 27.3753 8.97933 27.6631 9.45752C27.9551 9.93148 28.3952 10.1685 28.9834 10.1685C29.5632 10.1685 29.9927 9.94417 30.272 9.49561C30.5555 9.04704 30.7036 8.34033 30.7163 7.37549V5.45215ZM39.1904 7.05811C39.1904 8.43343 38.9556 9.4554 38.4858 10.124C38.0161 10.7926 37.2819 11.127 36.2832 11.127C35.2972 11.127 34.5672 10.8011 34.0933 10.1494C33.6193 9.49349 33.3739 8.51595 33.3569 7.2168V5.64893C33.3569 4.29053 33.5918 3.28125 34.0615 2.62109C34.5312 1.96094 35.2676 1.63086 36.2705 1.63086C37.265 1.63086 37.9971 1.95036 38.4668 2.58936C38.9365 3.22412 39.1777 4.20589 39.1904 5.53467V7.05811ZM38.0161 5.45215C38.0161 4.45768 37.8765 3.73405 37.5972 3.28125C37.3179 2.82422 36.8757 2.5957 36.2705 2.5957C35.6696 2.5957 35.2316 2.8221 34.9565 3.2749C34.6815 3.7277 34.5397 4.42383 34.5312 5.36328V7.24219C34.5312 8.24089 34.6751 8.97933 34.9629 9.45752C35.2549 9.93148 35.695 10.1685 36.2832 10.1685C36.863 10.1685 37.2925 9.94417 37.5718 9.49561C37.8553 9.04704 38.0034 8.34033 38.0161 7.37549V5.45215Z" fill="#FF3451"/>
</svg>
