<svg width="53" height="16" viewBox="0 0 53 16" fill="none" xmlns="http://www.w3.org/2000/svg">
<path d="M0.90918 7.95996C0.90918 6.93001 1.0459 5.94108 1.31934 4.99316C1.59733 4.04525 2.00977 3.18392 2.55664 2.40918C3.10352 1.63444 3.6709 1.08757 4.25879 0.768555L4.51855 1.60254C3.85319 2.11296 3.30632 2.89225 2.87793 3.94043C2.4541 4.98861 2.22168 6.16211 2.18066 7.46094L2.17383 8.04199C2.17383 9.80111 2.49512 11.3278 3.1377 12.6221C3.52507 13.3968 3.98535 14.0029 4.51855 14.4404L4.25879 15.2129C3.65267 14.8757 3.07389 14.3105 2.52246 13.5176C1.44694 11.9681 0.90918 10.1156 0.90918 7.95996ZM8.20996 8.8623L8.40137 10.1748L8.68164 8.99219L10.6504 2.04688H11.7578L13.6787 8.99219L13.9521 10.1953L14.1641 8.85547L15.709 2.04688H17.0283L14.6152 12H13.4189L11.3682 4.74707L11.2109 3.98828L11.0537 4.74707L8.92773 12H7.73145L5.3252 2.04688H6.6377L8.20996 8.8623ZM22.627 12C22.554 11.8542 22.4948 11.5944 22.4492 11.2207C21.8613 11.8314 21.1595 12.1367 20.3438 12.1367C19.6146 12.1367 19.0153 11.9316 18.5459 11.5215C18.0811 11.1068 17.8486 10.5827 17.8486 9.94922C17.8486 9.17904 18.1403 8.58203 18.7236 8.1582C19.3115 7.72982 20.1364 7.51562 21.1982 7.51562H22.4287V6.93457C22.4287 6.49251 22.2965 6.1416 22.0322 5.88184C21.7679 5.61751 21.3783 5.48535 20.8633 5.48535C20.4121 5.48535 20.0339 5.59928 19.7285 5.82715C19.4232 6.05501 19.2705 6.33073 19.2705 6.6543H17.999C17.999 6.28516 18.1289 5.92969 18.3887 5.58789C18.653 5.24154 19.0085 4.9681 19.4551 4.76758C19.9062 4.56706 20.4007 4.4668 20.9385 4.4668C21.7907 4.4668 22.4583 4.68099 22.9414 5.10938C23.4245 5.5332 23.6751 6.11882 23.6934 6.86621V10.2705C23.6934 10.9495 23.7799 11.4896 23.9531 11.8906V12H22.627ZM20.5283 11.0361C20.9248 11.0361 21.3008 10.9336 21.6562 10.7285C22.0117 10.5234 22.2692 10.2568 22.4287 9.92871V8.41113H21.4375C19.888 8.41113 19.1133 8.86458 19.1133 9.77148C19.1133 10.168 19.2454 10.4779 19.5098 10.7012C19.7741 10.9245 20.1136 11.0361 20.5283 11.0361ZM27.0498 12H25.7852V1.5H27.0498V12ZM30.2764 4.60352L30.3174 5.5332C30.8825 4.82227 31.6208 4.4668 32.5322 4.4668C34.0954 4.4668 34.8838 5.34863 34.8975 7.1123V12H33.6328V7.10547C33.6283 6.57227 33.5052 6.17806 33.2637 5.92285C33.0267 5.66764 32.6553 5.54004 32.1494 5.54004C31.7393 5.54004 31.3792 5.64941 31.0693 5.86816C30.7594 6.08691 30.5179 6.37402 30.3447 6.72949V12H29.0801V4.60352H30.2764ZM41.3711 11.2686C40.8789 11.8473 40.1566 12.1367 39.2041 12.1367C38.4157 12.1367 37.8141 11.9089 37.3994 11.4531C36.9893 10.9928 36.7819 10.3138 36.7773 9.41602V4.60352H38.042V9.38184C38.042 10.5029 38.4977 11.0635 39.4092 11.0635C40.3753 11.0635 41.0179 10.7035 41.3369 9.9834V4.60352H42.6016V12H41.3984L41.3711 11.2686ZM46.2451 2.8125V4.60352H47.626V5.58105H46.2451V10.168C46.2451 10.4642 46.3066 10.6875 46.4297 10.8379C46.5527 10.9837 46.7624 11.0566 47.0586 11.0566C47.2044 11.0566 47.4049 11.0293 47.6602 10.9746V12C47.3275 12.0911 47.0039 12.1367 46.6895 12.1367C46.1243 12.1367 45.6982 11.9658 45.4111 11.624C45.124 11.2822 44.9805 10.7969 44.9805 10.168V5.58105H43.6338V4.60352H44.9805V2.8125H46.2451ZM52.0283 8.02832C52.0283 9.0446 51.8939 10.0199 51.625 10.9541C51.3607 11.8838 50.9528 12.7428 50.4014 13.5312C49.8545 14.3197 49.2803 14.8802 48.6787 15.2129L48.4121 14.4404C49.1139 13.9027 49.6768 13.0687 50.1006 11.9385C50.529 10.8037 50.7477 9.5459 50.7568 8.16504V7.94629C50.7568 6.98926 50.6566 6.10059 50.4561 5.28027C50.2555 4.4554 49.9753 3.71712 49.6152 3.06543C49.2598 2.41374 48.8587 1.9056 48.4121 1.54102L48.6787 0.768555C49.2803 1.10124 49.8522 1.65723 50.3945 2.43652C50.9414 3.21582 51.3493 4.07487 51.6182 5.01367C51.8916 5.95247 52.0283 6.95736 52.0283 8.02832Z" fill="#A8A8A8"/>
</svg>
