<svg width="118" height="16" viewBox="0 0 118 16" fill="none" xmlns="http://www.w3.org/2000/svg">
<path d="M7.12646 9.2168H2.65869L1.65527 12H0.205078L4.27734 1.33594H5.50781L9.5874 12H8.14453L7.12646 9.2168ZM3.0835 8.05957H6.70898L4.89258 3.07178L3.0835 8.05957ZM12.0923 4.0752L12.1362 5.07129C12.7417 4.30957 13.5327 3.92871 14.5093 3.92871C16.1841 3.92871 17.0288 4.87354 17.0435 6.76318V12H15.6885V6.75586C15.6836 6.18457 15.5518 5.76221 15.293 5.48877C15.0391 5.21533 14.6411 5.07861 14.0991 5.07861C13.6597 5.07861 13.2739 5.1958 12.9419 5.43018C12.6099 5.66455 12.3511 5.97217 12.1655 6.35303V12H10.8105V4.0752H12.0923ZM23.9795 12C23.9014 11.8438 23.8379 11.5654 23.7891 11.165C23.1592 11.8193 22.4072 12.1465 21.5332 12.1465C20.752 12.1465 20.1099 11.9268 19.6069 11.4873C19.1089 11.043 18.8599 10.4814 18.8599 9.80273C18.8599 8.97754 19.1724 8.33789 19.7974 7.88379C20.4272 7.4248 21.311 7.19531 22.4487 7.19531H23.7671V6.57275C23.7671 6.09912 23.6255 5.72314 23.3423 5.44482C23.0591 5.16162 22.6416 5.02002 22.0898 5.02002C21.6064 5.02002 21.2012 5.14209 20.874 5.38623C20.5469 5.63037 20.3833 5.92578 20.3833 6.27246H19.021C19.021 5.87695 19.1602 5.49609 19.4385 5.12988C19.7217 4.75879 20.1025 4.46582 20.5811 4.25098C21.0645 4.03613 21.5942 3.92871 22.1704 3.92871C23.0835 3.92871 23.7988 4.1582 24.3164 4.61719C24.834 5.07129 25.1025 5.69873 25.1221 6.49951V10.147C25.1221 10.8745 25.2148 11.4531 25.4004 11.8828V12H23.9795ZM21.731 10.9673C22.1558 10.9673 22.5586 10.8574 22.9395 10.6377C23.3203 10.418 23.5962 10.1323 23.7671 9.78076V8.15479H22.7051C21.0449 8.15479 20.2148 8.64062 20.2148 9.6123C20.2148 10.0371 20.3564 10.3691 20.6396 10.6084C20.9229 10.8477 21.2866 10.9673 21.731 10.9673ZM28.7183 12H27.3633V0.75H28.7183V12ZM30.5347 7.96436C30.5347 7.18799 30.686 6.48975 30.9888 5.86963C31.2964 5.24951 31.7212 4.771 32.2632 4.43408C32.8101 4.09717 33.4326 3.92871 34.1309 3.92871C35.21 3.92871 36.0815 4.30225 36.7456 5.04932C37.4146 5.79639 37.749 6.79004 37.749 8.03027V8.12549C37.749 8.89697 37.6001 9.59033 37.3022 10.2056C37.0093 10.8159 36.5869 11.292 36.0352 11.6338C35.4883 11.9756 34.8584 12.1465 34.1455 12.1465C33.0713 12.1465 32.1997 11.7729 31.5308 11.0259C30.8667 10.2788 30.5347 9.29004 30.5347 8.05957V7.96436ZM31.897 8.12549C31.897 9.00439 32.0996 9.70996 32.5049 10.2422C32.915 10.7744 33.4619 11.0405 34.1455 11.0405C34.834 11.0405 35.3809 10.772 35.7861 10.2349C36.1914 9.69287 36.394 8.93604 36.394 7.96436C36.394 7.09521 36.1865 6.39209 35.7715 5.85498C35.3613 5.31299 34.8145 5.04199 34.1309 5.04199C33.4619 5.04199 32.9224 5.30811 32.5122 5.84033C32.1021 6.37256 31.897 7.13428 31.897 8.12549ZM39.126 7.97168C39.126 6.73633 39.4116 5.75488 39.9829 5.02734C40.5542 4.29492 41.311 3.92871 42.2534 3.92871C43.2202 3.92871 43.9746 4.27051 44.5166 4.9541L44.5825 4.0752H45.8203V11.8096C45.8203 12.835 45.5151 13.6431 44.9048 14.2339C44.2993 14.8247 43.4839 15.1201 42.4585 15.1201C41.8872 15.1201 41.3281 14.998 40.7812 14.7539C40.2344 14.5098 39.8169 14.1753 39.5288 13.7505L40.2319 12.9375C40.813 13.6553 41.5234 14.0142 42.3633 14.0142C43.0225 14.0142 43.5352 13.8286 43.9014 13.4575C44.2725 13.0864 44.458 12.564 44.458 11.8901V11.209C43.916 11.834 43.1763 12.1465 42.2388 12.1465C41.311 12.1465 40.5591 11.7729 39.9829 11.0259C39.4116 10.2788 39.126 9.26074 39.126 7.97168ZM40.4883 8.12549C40.4883 9.01904 40.6714 9.72217 41.0376 10.2349C41.4038 10.7427 41.9165 10.9966 42.5757 10.9966C43.4302 10.9966 44.0576 10.6084 44.458 9.83203V6.21387C44.043 5.45703 43.4204 5.07861 42.5903 5.07861C41.9312 5.07861 41.416 5.33496 41.0449 5.84766C40.6738 6.36035 40.4883 7.11963 40.4883 8.12549ZM54.9463 7.24658C53.7402 6.8999 52.8613 6.4751 52.3096 5.97217C51.7627 5.46436 51.4893 4.83936 51.4893 4.09717C51.4893 3.25732 51.8237 2.56396 52.4927 2.01709C53.1665 1.46533 54.0405 1.18945 55.1147 1.18945C55.8472 1.18945 56.499 1.33105 57.0703 1.61426C57.6465 1.89746 58.0908 2.28809 58.4033 2.78613C58.7207 3.28418 58.8794 3.82861 58.8794 4.41943H57.4658C57.4658 3.7749 57.2607 3.26953 56.8506 2.90332C56.4404 2.53223 55.8618 2.34668 55.1147 2.34668C54.4214 2.34668 53.8794 2.50049 53.4888 2.80811C53.103 3.11084 52.9102 3.5332 52.9102 4.0752C52.9102 4.50977 53.0933 4.87842 53.4595 5.18115C53.8306 5.479 54.458 5.75244 55.3418 6.00146C56.2305 6.25049 56.9238 6.52637 57.4219 6.8291C57.9248 7.12695 58.2959 7.47607 58.5352 7.87646C58.7793 8.27686 58.9014 8.74805 58.9014 9.29004C58.9014 10.1543 58.5645 10.8477 57.8906 11.3701C57.2168 11.8877 56.3159 12.1465 55.188 12.1465C54.4556 12.1465 53.772 12.0073 53.1372 11.729C52.5024 11.4458 52.0117 11.0601 51.665 10.5718C51.3232 10.0835 51.1523 9.5293 51.1523 8.90918H52.5659C52.5659 9.55371 52.8027 10.064 53.2764 10.4399C53.7549 10.811 54.3921 10.9966 55.188 10.9966C55.9302 10.9966 56.499 10.8452 56.8945 10.5425C57.29 10.2397 57.4878 9.82715 57.4878 9.30469C57.4878 8.78223 57.3047 8.37939 56.9385 8.09619C56.5723 7.80811 55.9082 7.5249 54.9463 7.24658ZM62.3364 2.15625V4.0752H63.8159V5.12256H62.3364V10.0371C62.3364 10.3545 62.4023 10.5938 62.5342 10.7549C62.666 10.9111 62.8906 10.9893 63.208 10.9893C63.3643 10.9893 63.5791 10.96 63.8525 10.9014V12C63.4961 12.0977 63.1494 12.1465 62.8125 12.1465C62.207 12.1465 61.7505 11.9634 61.4429 11.5972C61.1353 11.231 60.9814 10.7109 60.9814 10.0371V5.12256H59.5386V4.0752H60.9814V2.15625H62.3364ZM70.2979 12C70.2197 11.8438 70.1562 11.5654 70.1074 11.165C69.4775 11.8193 68.7256 12.1465 67.8516 12.1465C67.0703 12.1465 66.4282 11.9268 65.9253 11.4873C65.4272 11.043 65.1782 10.4814 65.1782 9.80273C65.1782 8.97754 65.4907 8.33789 66.1157 7.88379C66.7456 7.4248 67.6294 7.19531 68.7671 7.19531H70.0854V6.57275C70.0854 6.09912 69.9438 5.72314 69.6606 5.44482C69.3774 5.16162 68.96 5.02002 68.4082 5.02002C67.9248 5.02002 67.5195 5.14209 67.1924 5.38623C66.8652 5.63037 66.7017 5.92578 66.7017 6.27246H65.3394C65.3394 5.87695 65.4785 5.49609 65.7568 5.12988C66.04 4.75879 66.4209 4.46582 66.8994 4.25098C67.3828 4.03613 67.9126 3.92871 68.4888 3.92871C69.4019 3.92871 70.1172 4.1582 70.6348 4.61719C71.1523 5.07129 71.4209 5.69873 71.4404 6.49951V10.147C71.4404 10.8745 71.5332 11.4531 71.7188 11.8828V12H70.2979ZM68.0493 10.9673C68.4741 10.9673 68.877 10.8574 69.2578 10.6377C69.6387 10.418 69.9146 10.1323 70.0854 9.78076V8.15479H69.0234C67.3633 8.15479 66.5332 8.64062 66.5332 9.6123C66.5332 10.0371 66.6748 10.3691 66.958 10.6084C67.2412 10.8477 67.605 10.9673 68.0493 10.9673ZM77.395 5.29102C77.1899 5.25684 76.9678 5.23975 76.7285 5.23975C75.8398 5.23975 75.2368 5.61816 74.9194 6.375V12H73.5645V4.0752H74.8828L74.9048 4.99072C75.3491 4.28271 75.979 3.92871 76.7944 3.92871C77.0581 3.92871 77.2583 3.96289 77.395 4.03125V5.29102ZM80.8521 2.15625V4.0752H82.3315V5.12256H80.8521V10.0371C80.8521 10.3545 80.918 10.5938 81.0498 10.7549C81.1816 10.9111 81.4062 10.9893 81.7236 10.9893C81.8799 10.9893 82.0947 10.96 82.3682 10.9014V12C82.0117 12.0977 81.665 12.1465 81.3281 12.1465C80.7227 12.1465 80.2661 11.9634 79.9585 11.5972C79.6509 11.231 79.4971 10.7109 79.4971 10.0371V5.12256H78.0542V4.0752H79.4971V2.15625H80.8521ZM87.2095 12.1465C86.1353 12.1465 85.2612 11.7949 84.5874 11.0918C83.9136 10.3838 83.5767 9.43896 83.5767 8.25732V8.0083C83.5767 7.22217 83.7256 6.52148 84.0234 5.90625C84.3262 5.28613 84.7461 4.80273 85.2832 4.45605C85.8252 4.10449 86.4111 3.92871 87.041 3.92871C88.0713 3.92871 88.8721 4.26807 89.4434 4.94678C90.0146 5.62549 90.3003 6.59717 90.3003 7.86182V8.42578H84.9316C84.9512 9.20703 85.1782 9.83936 85.6128 10.3228C86.0522 10.8013 86.6089 11.0405 87.2827 11.0405C87.7612 11.0405 88.1665 10.9429 88.4985 10.7476C88.8306 10.5522 89.1211 10.2935 89.3701 9.97119L90.1978 10.6157C89.5337 11.6362 88.5376 12.1465 87.2095 12.1465ZM87.041 5.04199C86.4941 5.04199 86.0352 5.24219 85.6641 5.64258C85.293 6.03809 85.0635 6.59473 84.9756 7.3125H88.9453V7.20996C88.9062 6.52148 88.7207 5.98926 88.3887 5.61328C88.0566 5.23242 87.6074 5.04199 87.041 5.04199ZM95.7056 5.29102C95.5005 5.25684 95.2783 5.23975 95.0391 5.23975C94.1504 5.23975 93.5474 5.61816 93.23 6.375V12H91.875V4.0752H93.1934L93.2153 4.99072C93.6597 4.28271 94.2896 3.92871 95.105 3.92871C95.3687 3.92871 95.5688 3.96289 95.7056 4.03125V5.29102ZM103.601 7.0415L102.297 8.39648V12H100.891V1.33594H102.297V6.60938L107.036 1.33594H108.735L104.539 6.04541L109.065 12H107.38L103.601 7.0415ZM111.555 12H110.2V4.0752H111.555V12ZM110.09 1.97314C110.09 1.75342 110.156 1.56787 110.288 1.4165C110.425 1.26514 110.625 1.18945 110.889 1.18945C111.152 1.18945 111.353 1.26514 111.489 1.4165C111.626 1.56787 111.694 1.75342 111.694 1.97314C111.694 2.19287 111.626 2.37598 111.489 2.52246C111.353 2.66895 111.152 2.74219 110.889 2.74219C110.625 2.74219 110.425 2.66895 110.288 2.52246C110.156 2.37598 110.09 2.19287 110.09 1.97314ZM115.569 2.15625V4.0752H117.048V5.12256H115.569V10.0371C115.569 10.3545 115.635 10.5938 115.767 10.7549C115.898 10.9111 116.123 10.9893 116.44 10.9893C116.597 10.9893 116.812 10.96 117.085 10.9014V12C116.729 12.0977 116.382 12.1465 116.045 12.1465C115.439 12.1465 114.983 11.9634 114.675 11.5972C114.368 11.231 114.214 10.7109 114.214 10.0371V5.12256H112.771V4.0752H114.214V2.15625H115.569Z" fill="#1A1A1A"/>
</svg>
