<svg width="332" height="18" viewBox="0 0 332 18" fill="none" xmlns="http://www.w3.org/2000/svg">
<path d="M8.55176 10.6602H3.19043L1.98633 14H0.246094L5.13281 1.20312H6.60938L11.5049 14H9.77344L8.55176 10.6602ZM3.7002 9.27148H8.05078L5.87109 3.28613L3.7002 9.27148ZM14.5107 4.49023L14.5635 5.68555C15.29 4.77148 16.2393 4.31445 17.4111 4.31445C19.4209 4.31445 20.4346 5.44824 20.4521 7.71582V14H18.8262V7.70703C18.8203 7.02148 18.6621 6.51465 18.3516 6.18652C18.0469 5.8584 17.5693 5.69434 16.9189 5.69434C16.3916 5.69434 15.9287 5.83496 15.5303 6.11621C15.1318 6.39746 14.8213 6.7666 14.5986 7.22363V14H12.9727V4.49023H14.5107ZM28.7754 14C28.6816 13.8125 28.6055 13.4785 28.5469 12.998C27.791 13.7832 26.8887 14.1758 25.8398 14.1758C24.9023 14.1758 24.1318 13.9121 23.5283 13.3848C22.9307 12.8516 22.6318 12.1777 22.6318 11.3633C22.6318 10.373 23.0068 9.60547 23.7568 9.06055C24.5127 8.50977 25.5732 8.23438 26.9385 8.23438H28.5205V7.4873C28.5205 6.91895 28.3506 6.46777 28.0107 6.13379C27.6709 5.79395 27.1699 5.62402 26.5078 5.62402C25.9277 5.62402 25.4414 5.77051 25.0488 6.06348C24.6562 6.35645 24.46 6.71094 24.46 7.12695H22.8252C22.8252 6.65234 22.9922 6.19531 23.3262 5.75586C23.666 5.31055 24.123 4.95898 24.6973 4.70117C25.2773 4.44336 25.9131 4.31445 26.6045 4.31445C27.7002 4.31445 28.5586 4.58984 29.1797 5.14062C29.8008 5.68555 30.123 6.43848 30.1465 7.39941V11.7764C30.1465 12.6494 30.2578 13.3438 30.4805 13.8594V14H28.7754ZM26.0771 12.7607C26.5869 12.7607 27.0703 12.6289 27.5273 12.3652C27.9844 12.1016 28.3154 11.7588 28.5205 11.3369V9.38574H27.2461C25.2539 9.38574 24.2578 9.96875 24.2578 11.1348C24.2578 11.6445 24.4277 12.043 24.7676 12.3301C25.1074 12.6172 25.5439 12.7607 26.0771 12.7607ZM34.4619 14H32.8359V0.5H34.4619V14ZM36.6416 9.15723C36.6416 8.22559 36.8232 7.3877 37.1865 6.64355C37.5557 5.89941 38.0654 5.3252 38.7158 4.9209C39.3721 4.5166 40.1191 4.31445 40.957 4.31445C42.252 4.31445 43.2979 4.7627 44.0947 5.65918C44.8975 6.55566 45.2988 7.74805 45.2988 9.23633V9.35059C45.2988 10.2764 45.1201 11.1084 44.7627 11.8467C44.4111 12.5791 43.9043 13.1504 43.2422 13.5605C42.5859 13.9707 41.8301 14.1758 40.9746 14.1758C39.6855 14.1758 38.6396 13.7275 37.8369 12.8311C37.04 11.9346 36.6416 10.748 36.6416 9.27148V9.15723ZM38.2764 9.35059C38.2764 10.4053 38.5195 11.252 39.0059 11.8906C39.498 12.5293 40.1543 12.8486 40.9746 12.8486C41.8008 12.8486 42.457 12.5264 42.9434 11.8818C43.4297 11.2314 43.6729 10.3232 43.6729 9.15723C43.6729 8.11426 43.4238 7.27051 42.9258 6.62598C42.4336 5.97559 41.7773 5.65039 40.957 5.65039C40.1543 5.65039 39.5068 5.96973 39.0146 6.6084C38.5225 7.24707 38.2764 8.16113 38.2764 9.35059ZM46.9512 9.16602C46.9512 7.68359 47.2939 6.50586 47.9795 5.63281C48.665 4.75391 49.5732 4.31445 50.7041 4.31445C51.8643 4.31445 52.7695 4.72461 53.4199 5.54492L53.499 4.49023H54.9844V13.7715C54.9844 15.002 54.6182 15.9717 53.8857 16.6807C53.1592 17.3896 52.1807 17.7441 50.9502 17.7441C50.2646 17.7441 49.5938 17.5977 48.9375 17.3047C48.2812 17.0117 47.7803 16.6104 47.4346 16.1006L48.2783 15.125C48.9756 15.9863 49.8281 16.417 50.8359 16.417C51.627 16.417 52.2422 16.1943 52.6816 15.749C53.127 15.3037 53.3496 14.6768 53.3496 13.8682V13.0508C52.6992 13.8008 51.8115 14.1758 50.6865 14.1758C49.5732 14.1758 48.6709 13.7275 47.9795 12.8311C47.2939 11.9346 46.9512 10.7129 46.9512 9.16602ZM48.5859 9.35059C48.5859 10.4229 48.8057 11.2666 49.2451 11.8818C49.6846 12.4912 50.2998 12.7959 51.0908 12.7959C52.1162 12.7959 52.8691 12.3301 53.3496 11.3984V7.05664C52.8516 6.14844 52.1045 5.69434 51.1084 5.69434C50.3174 5.69434 49.6992 6.00195 49.2539 6.61719C48.8086 7.23242 48.5859 8.14355 48.5859 9.35059ZM57.3926 13.1475C57.3926 12.8662 57.4746 12.6318 57.6387 12.4443C57.8086 12.2568 58.0605 12.1631 58.3945 12.1631C58.7285 12.1631 58.9805 12.2568 59.1504 12.4443C59.3262 12.6318 59.4141 12.8662 59.4141 13.1475C59.4141 13.417 59.3262 13.6426 59.1504 13.8242C58.9805 14.0059 58.7285 14.0967 58.3945 14.0967C58.0605 14.0967 57.8086 14.0059 57.6387 13.8242C57.4746 13.6426 57.3926 13.417 57.3926 13.1475ZM57.4014 5.38672C57.4014 5.10547 57.4834 4.87109 57.6475 4.68359C57.8174 4.49609 58.0693 4.40234 58.4033 4.40234C58.7373 4.40234 58.9893 4.49609 59.1592 4.68359C59.335 4.87109 59.4229 5.10547 59.4229 5.38672C59.4229 5.65625 59.335 5.88184 59.1592 6.06348C58.9893 6.24512 58.7373 6.33594 58.4033 6.33594C58.0693 6.33594 57.8174 6.24512 57.6475 6.06348C57.4834 5.88184 57.4014 5.65625 57.4014 5.38672ZM75.0146 2.5918H70.9014V14H69.2227V2.5918H65.1182V1.20312H75.0146V2.5918ZM78.2842 5.6416C79.0049 4.75684 79.9424 4.31445 81.0967 4.31445C83.1064 4.31445 84.1201 5.44824 84.1377 7.71582V14H82.5117V7.70703C82.5059 7.02148 82.3477 6.51465 82.0371 6.18652C81.7324 5.8584 81.2549 5.69434 80.6045 5.69434C80.0771 5.69434 79.6143 5.83496 79.2158 6.11621C78.8174 6.39746 78.5068 6.7666 78.2842 7.22363V14H76.6582V0.5H78.2842V5.6416ZM90.5186 14.1758C89.2295 14.1758 88.1807 13.7539 87.3721 12.9102C86.5635 12.0605 86.1592 10.9268 86.1592 9.50879V9.20996C86.1592 8.2666 86.3379 7.42578 86.6953 6.6875C87.0586 5.94336 87.5625 5.36328 88.207 4.94727C88.8574 4.52539 89.5605 4.31445 90.3164 4.31445C91.5527 4.31445 92.5137 4.72168 93.1992 5.53613C93.8848 6.35059 94.2275 7.5166 94.2275 9.03418V9.71094H87.7852C87.8086 10.6484 88.0811 11.4072 88.6025 11.9873C89.1299 12.5615 89.7979 12.8486 90.6064 12.8486C91.1807 12.8486 91.667 12.7314 92.0654 12.4971C92.4639 12.2627 92.8125 11.9521 93.1113 11.5654L94.1045 12.3389C93.3076 13.5635 92.1123 14.1758 90.5186 14.1758ZM90.3164 5.65039C89.6602 5.65039 89.1094 5.89062 88.6641 6.37109C88.2188 6.8457 87.9434 7.51367 87.8379 8.375H92.6016V8.25195C92.5547 7.42578 92.332 6.78711 91.9336 6.33594C91.5352 5.87891 90.9961 5.65039 90.3164 5.65039ZM104.607 8.2959C103.16 7.87988 102.105 7.37012 101.443 6.7666C100.787 6.15723 100.459 5.40723 100.459 4.5166C100.459 3.50879 100.86 2.67676 101.663 2.02051C102.472 1.3584 103.521 1.02734 104.81 1.02734C105.688 1.02734 106.471 1.19727 107.156 1.53711C107.848 1.87695 108.381 2.3457 108.756 2.94336C109.137 3.54102 109.327 4.19434 109.327 4.90332H107.631C107.631 4.12988 107.385 3.52344 106.893 3.08398C106.4 2.63867 105.706 2.41602 104.81 2.41602C103.978 2.41602 103.327 2.60059 102.858 2.96973C102.396 3.33301 102.164 3.83984 102.164 4.49023C102.164 5.01172 102.384 5.4541 102.823 5.81738C103.269 6.1748 104.021 6.50293 105.082 6.80176C106.148 7.10059 106.98 7.43164 107.578 7.79492C108.182 8.15234 108.627 8.57129 108.914 9.05176C109.207 9.53223 109.354 10.0977 109.354 10.748C109.354 11.7852 108.949 12.6172 108.141 13.2441C107.332 13.8652 106.251 14.1758 104.897 14.1758C104.019 14.1758 103.198 14.0088 102.437 13.6748C101.675 13.335 101.086 12.8721 100.67 12.2861C100.26 11.7002 100.055 11.0352 100.055 10.291H101.751C101.751 11.0645 102.035 11.6768 102.604 12.1279C103.178 12.5732 103.942 12.7959 104.897 12.7959C105.788 12.7959 106.471 12.6143 106.945 12.251C107.42 11.8877 107.657 11.3926 107.657 10.7656C107.657 10.1387 107.438 9.65527 106.998 9.31543C106.559 8.96973 105.762 8.62988 104.607 8.2959ZM113.036 14H111.41V4.49023H113.036V14ZM111.278 1.96777C111.278 1.7041 111.357 1.48145 111.516 1.2998C111.68 1.11816 111.92 1.02734 112.236 1.02734C112.553 1.02734 112.793 1.11816 112.957 1.2998C113.121 1.48145 113.203 1.7041 113.203 1.96777C113.203 2.23145 113.121 2.45117 112.957 2.62695C112.793 2.80273 112.553 2.89062 112.236 2.89062C111.92 2.89062 111.68 2.80273 111.516 2.62695C111.357 2.45117 111.278 2.23145 111.278 1.96777ZM117.176 4.49023L117.22 5.54492C117.917 4.72461 118.857 4.31445 120.041 4.31445C121.371 4.31445 122.276 4.82422 122.757 5.84375C123.073 5.38672 123.483 5.01758 123.987 4.73633C124.497 4.45508 125.098 4.31445 125.789 4.31445C127.875 4.31445 128.936 5.41895 128.971 7.62793V14H127.345V7.72461C127.345 7.04492 127.189 6.53809 126.879 6.2041C126.568 5.86426 126.047 5.69434 125.314 5.69434C124.711 5.69434 124.21 5.87598 123.812 6.23926C123.413 6.59668 123.182 7.08008 123.117 7.68945V14H121.482V7.76855C121.482 6.38574 120.806 5.69434 119.452 5.69434C118.386 5.69434 117.656 6.14844 117.264 7.05664V14H115.638V4.49023H117.176ZM139.465 9.35059C139.465 10.7979 139.134 11.9639 138.472 12.8486C137.81 13.7334 136.913 14.1758 135.782 14.1758C134.628 14.1758 133.72 13.8096 133.058 13.0771V17.6562H131.432V4.49023H132.917L132.996 5.54492C133.658 4.72461 134.578 4.31445 135.756 4.31445C136.898 4.31445 137.801 4.74512 138.463 5.60645C139.131 6.46777 139.465 7.66602 139.465 9.20117V9.35059ZM137.839 9.16602C137.839 8.09375 137.61 7.24707 137.153 6.62598C136.696 6.00488 136.069 5.69434 135.272 5.69434C134.288 5.69434 133.55 6.13086 133.058 7.00391V11.5479C133.544 12.415 134.288 12.8486 135.29 12.8486C136.069 12.8486 136.688 12.541 137.145 11.9258C137.607 11.3047 137.839 10.3848 137.839 9.16602ZM143.306 14H141.68V0.5H143.306V14ZM149.862 14.1758C148.573 14.1758 147.524 13.7539 146.716 12.9102C145.907 12.0605 145.503 10.9268 145.503 9.50879V9.20996C145.503 8.2666 145.682 7.42578 146.039 6.6875C146.402 5.94336 146.906 5.36328 147.551 4.94727C148.201 4.52539 148.904 4.31445 149.66 4.31445C150.896 4.31445 151.857 4.72168 152.543 5.53613C153.229 6.35059 153.571 7.5166 153.571 9.03418V9.71094H147.129C147.152 10.6484 147.425 11.4072 147.946 11.9873C148.474 12.5615 149.142 12.8486 149.95 12.8486C150.524 12.8486 151.011 12.7314 151.409 12.4971C151.808 12.2627 152.156 11.9521 152.455 11.5654L153.448 12.3389C152.651 13.5635 151.456 14.1758 149.862 14.1758ZM149.66 5.65039C149.004 5.65039 148.453 5.89062 148.008 6.37109C147.562 6.8457 147.287 7.51367 147.182 8.375H151.945V8.25195C151.898 7.42578 151.676 6.78711 151.277 6.33594C150.879 5.87891 150.34 5.65039 149.66 5.65039ZM160.998 11.4775C160.998 11.0381 160.831 10.6982 160.497 10.458C160.169 10.2119 159.592 10.001 158.766 9.8252C157.945 9.64941 157.292 9.43848 156.806 9.19238C156.325 8.94629 155.968 8.65332 155.733 8.31348C155.505 7.97363 155.391 7.56934 155.391 7.10059C155.391 6.32129 155.719 5.66211 156.375 5.12305C157.037 4.58398 157.881 4.31445 158.906 4.31445C159.984 4.31445 160.857 4.59277 161.525 5.14941C162.199 5.70605 162.536 6.41797 162.536 7.28516H160.901C160.901 6.83984 160.711 6.45605 160.33 6.13379C159.955 5.81152 159.48 5.65039 158.906 5.65039C158.314 5.65039 157.852 5.7793 157.518 6.03711C157.184 6.29492 157.017 6.63184 157.017 7.04785C157.017 7.44043 157.172 7.73633 157.482 7.93555C157.793 8.13477 158.353 8.3252 159.161 8.50684C159.976 8.68848 160.635 8.90527 161.139 9.15723C161.643 9.40918 162.015 9.71387 162.255 10.0713C162.501 10.4229 162.624 10.8535 162.624 11.3633C162.624 12.2129 162.284 12.8955 161.604 13.4111C160.925 13.9209 160.043 14.1758 158.959 14.1758C158.197 14.1758 157.523 14.041 156.938 13.7715C156.352 13.502 155.892 13.127 155.558 12.6465C155.229 12.1602 155.065 11.6357 155.065 11.0732H156.691C156.721 11.6182 156.938 12.0518 157.342 12.374C157.752 12.6904 158.291 12.8486 158.959 12.8486C159.574 12.8486 160.066 12.7256 160.436 12.4795C160.811 12.2275 160.998 11.8936 160.998 11.4775ZM166.948 2.1875V4.49023H168.724V5.74707H166.948V11.6445C166.948 12.0254 167.027 12.3125 167.186 12.5059C167.344 12.6934 167.613 12.7871 167.994 12.7871C168.182 12.7871 168.439 12.752 168.768 12.6816V14C168.34 14.1172 167.924 14.1758 167.52 14.1758C166.793 14.1758 166.245 13.9561 165.876 13.5166C165.507 13.0771 165.322 12.4531 165.322 11.6445V5.74707H163.591V4.49023H165.322V2.1875H166.948ZM177.038 8.99023V14H175.351V1.20312H180.07C181.471 1.20312 182.566 1.56055 183.357 2.27539C184.154 2.99023 184.553 3.93652 184.553 5.11426C184.553 6.35645 184.163 7.31445 183.384 7.98828C182.61 8.65625 181.5 8.99023 180.053 8.99023H177.038ZM177.038 7.61035H180.07C180.973 7.61035 181.664 7.39941 182.145 6.97754C182.625 6.5498 182.865 5.93457 182.865 5.13184C182.865 4.37012 182.625 3.76074 182.145 3.30371C181.664 2.84668 181.005 2.60938 180.167 2.5918H177.038V7.61035ZM191.048 5.94922C190.802 5.9082 190.535 5.8877 190.248 5.8877C189.182 5.8877 188.458 6.3418 188.077 7.25V14H186.451V4.49023H188.033L188.06 5.58887C188.593 4.73926 189.349 4.31445 190.327 4.31445C190.644 4.31445 190.884 4.35547 191.048 4.4375V5.94922ZM191.944 9.15723C191.944 8.22559 192.126 7.3877 192.489 6.64355C192.858 5.89941 193.368 5.3252 194.019 4.9209C194.675 4.5166 195.422 4.31445 196.26 4.31445C197.555 4.31445 198.601 4.7627 199.397 5.65918C200.2 6.55566 200.602 7.74805 200.602 9.23633V9.35059C200.602 10.2764 200.423 11.1084 200.065 11.8467C199.714 12.5791 199.207 13.1504 198.545 13.5605C197.889 13.9707 197.133 14.1758 196.277 14.1758C194.988 14.1758 193.942 13.7275 193.14 12.8311C192.343 11.9346 191.944 10.748 191.944 9.27148V9.15723ZM193.579 9.35059C193.579 10.4053 193.822 11.252 194.309 11.8906C194.801 12.5293 195.457 12.8486 196.277 12.8486C197.104 12.8486 197.76 12.5264 198.246 11.8818C198.732 11.2314 198.976 10.3232 198.976 9.15723C198.976 8.11426 198.727 7.27051 198.229 6.62598C197.736 5.97559 197.08 5.65039 196.26 5.65039C195.457 5.65039 194.81 5.96973 194.317 6.6084C193.825 7.24707 193.579 8.16113 193.579 9.35059ZM202.245 9.16602C202.245 7.70703 202.591 6.53516 203.282 5.65039C203.974 4.75977 204.879 4.31445 205.998 4.31445C207.111 4.31445 207.993 4.69531 208.644 5.45703V0.5H210.27V14H208.775L208.696 12.9805C208.046 13.7773 207.141 14.1758 205.98 14.1758C204.879 14.1758 203.979 13.7246 203.282 12.8223C202.591 11.9199 202.245 10.7422 202.245 9.28906V9.16602ZM203.871 9.35059C203.871 10.4287 204.094 11.2725 204.539 11.8818C204.984 12.4912 205.6 12.7959 206.385 12.7959C207.416 12.7959 208.169 12.333 208.644 11.4072V7.03906C208.157 6.14258 207.41 5.69434 206.402 5.69434C205.605 5.69434 204.984 6.00195 204.539 6.61719C204.094 7.23242 203.871 8.14355 203.871 9.35059ZM218.672 13.0596C218.039 13.8037 217.11 14.1758 215.886 14.1758C214.872 14.1758 214.099 13.8828 213.565 13.2969C213.038 12.7051 212.771 11.832 212.766 10.6777V4.49023H214.392V10.6338C214.392 12.0752 214.978 12.7959 216.149 12.7959C217.392 12.7959 218.218 12.333 218.628 11.4072V4.49023H220.254V14H218.707L218.672 13.0596ZM226.547 12.8486C227.127 12.8486 227.634 12.6729 228.067 12.3213C228.501 11.9697 228.741 11.5303 228.788 11.0029H230.326C230.297 11.5479 230.109 12.0664 229.764 12.5586C229.418 13.0508 228.955 13.4434 228.375 13.7363C227.801 14.0293 227.191 14.1758 226.547 14.1758C225.252 14.1758 224.221 13.7451 223.453 12.8838C222.691 12.0166 222.311 10.833 222.311 9.33301V9.06055C222.311 8.13477 222.48 7.31152 222.82 6.59082C223.16 5.87012 223.646 5.31055 224.279 4.91211C224.918 4.51367 225.671 4.31445 226.538 4.31445C227.604 4.31445 228.489 4.63379 229.192 5.27246C229.901 5.91113 230.279 6.74023 230.326 7.75977H228.788C228.741 7.14453 228.507 6.64062 228.085 6.24805C227.669 5.84961 227.153 5.65039 226.538 5.65039C225.712 5.65039 225.07 5.94922 224.613 6.54688C224.162 7.13867 223.937 7.99707 223.937 9.12207V9.42969C223.937 10.5254 224.162 11.3691 224.613 11.9609C225.064 12.5527 225.709 12.8486 226.547 12.8486ZM234.36 2.1875V4.49023H236.136V5.74707H234.36V11.6445C234.36 12.0254 234.439 12.3125 234.598 12.5059C234.756 12.6934 235.025 12.7871 235.406 12.7871C235.594 12.7871 235.852 12.752 236.18 12.6816V14C235.752 14.1172 235.336 14.1758 234.932 14.1758C234.205 14.1758 233.657 13.9561 233.288 13.5166C232.919 13.0771 232.734 12.4531 232.734 11.6445V5.74707H231.003V4.49023H232.734V2.1875H234.36ZM239.81 14H238.184V4.49023H239.81V14ZM238.052 1.96777C238.052 1.7041 238.131 1.48145 238.289 1.2998C238.453 1.11816 238.693 1.02734 239.01 1.02734C239.326 1.02734 239.566 1.11816 239.73 1.2998C239.895 1.48145 239.977 1.7041 239.977 1.96777C239.977 2.23145 239.895 2.45117 239.73 2.62695C239.566 2.80273 239.326 2.89062 239.01 2.89062C238.693 2.89062 238.453 2.80273 238.289 2.62695C238.131 2.45117 238.052 2.23145 238.052 1.96777ZM245.558 11.7939L247.913 4.49023H249.574L246.164 14H244.925L241.479 4.49023H243.141L245.558 11.7939ZM252.905 14H251.279V4.49023H252.905V14ZM251.147 1.96777C251.147 1.7041 251.227 1.48145 251.385 1.2998C251.549 1.11816 251.789 1.02734 252.105 1.02734C252.422 1.02734 252.662 1.11816 252.826 1.2998C252.99 1.48145 253.072 1.7041 253.072 1.96777C253.072 2.23145 252.99 2.45117 252.826 2.62695C252.662 2.80273 252.422 2.89062 252.105 2.89062C251.789 2.89062 251.549 2.80273 251.385 2.62695C251.227 2.45117 251.147 2.23145 251.147 1.96777ZM257.722 2.1875V4.49023H259.497V5.74707H257.722V11.6445C257.722 12.0254 257.801 12.3125 257.959 12.5059C258.117 12.6934 258.387 12.7871 258.768 12.7871C258.955 12.7871 259.213 12.752 259.541 12.6816V14C259.113 14.1172 258.697 14.1758 258.293 14.1758C257.566 14.1758 257.019 13.9561 256.649 13.5166C256.28 13.0771 256.096 12.4531 256.096 11.6445V5.74707H254.364V4.49023H256.096V2.1875H257.722ZM264.516 11.6182L266.73 4.49023H268.471L264.647 15.4678C264.056 17.0498 263.115 17.8408 261.826 17.8408L261.519 17.8145L260.912 17.7002V16.3818L261.352 16.417C261.902 16.417 262.33 16.3057 262.635 16.083C262.945 15.8604 263.2 15.4531 263.399 14.8613L263.76 13.8945L260.367 4.49023H262.143L264.516 11.6182ZM278.42 8.2959C276.973 7.87988 275.918 7.37012 275.256 6.7666C274.6 6.15723 274.271 5.40723 274.271 4.5166C274.271 3.50879 274.673 2.67676 275.476 2.02051C276.284 1.3584 277.333 1.02734 278.622 1.02734C279.501 1.02734 280.283 1.19727 280.969 1.53711C281.66 1.87695 282.193 2.3457 282.568 2.94336C282.949 3.54102 283.14 4.19434 283.14 4.90332H281.443C281.443 4.12988 281.197 3.52344 280.705 3.08398C280.213 2.63867 279.519 2.41602 278.622 2.41602C277.79 2.41602 277.14 2.60059 276.671 2.96973C276.208 3.33301 275.977 3.83984 275.977 4.49023C275.977 5.01172 276.196 5.4541 276.636 5.81738C277.081 6.1748 277.834 6.50293 278.895 6.80176C279.961 7.10059 280.793 7.43164 281.391 7.79492C281.994 8.15234 282.439 8.57129 282.727 9.05176C283.02 9.53223 283.166 10.0977 283.166 10.748C283.166 11.7852 282.762 12.6172 281.953 13.2441C281.145 13.8652 280.063 14.1758 278.71 14.1758C277.831 14.1758 277.011 14.0088 276.249 13.6748C275.487 13.335 274.898 12.8721 274.482 12.2861C274.072 11.7002 273.867 11.0352 273.867 10.291H275.563C275.563 11.0645 275.848 11.6768 276.416 12.1279C276.99 12.5732 277.755 12.7959 278.71 12.7959C279.601 12.7959 280.283 12.6143 280.758 12.251C281.232 11.8877 281.47 11.3926 281.47 10.7656C281.47 10.1387 281.25 9.65527 280.811 9.31543C280.371 8.96973 279.574 8.62988 278.42 8.2959ZM288.193 11.6182L290.408 4.49023H292.148L288.325 15.4678C287.733 17.0498 286.793 17.8408 285.504 17.8408L285.196 17.8145L284.59 17.7002V16.3818L285.029 16.417C285.58 16.417 286.008 16.3057 286.312 16.083C286.623 15.8604 286.878 15.4531 287.077 14.8613L287.438 13.8945L284.045 4.49023H285.82L288.193 11.6182ZM299.145 11.4775C299.145 11.0381 298.978 10.6982 298.644 10.458C298.315 10.2119 297.738 10.001 296.912 9.8252C296.092 9.64941 295.438 9.43848 294.952 9.19238C294.472 8.94629 294.114 8.65332 293.88 8.31348C293.651 7.97363 293.537 7.56934 293.537 7.10059C293.537 6.32129 293.865 5.66211 294.521 5.12305C295.184 4.58398 296.027 4.31445 297.053 4.31445C298.131 4.31445 299.004 4.59277 299.672 5.14941C300.346 5.70605 300.683 6.41797 300.683 7.28516H299.048C299.048 6.83984 298.857 6.45605 298.477 6.13379C298.102 5.81152 297.627 5.65039 297.053 5.65039C296.461 5.65039 295.998 5.7793 295.664 6.03711C295.33 6.29492 295.163 6.63184 295.163 7.04785C295.163 7.44043 295.318 7.73633 295.629 7.93555C295.939 8.13477 296.499 8.3252 297.308 8.50684C298.122 8.68848 298.781 8.90527 299.285 9.15723C299.789 9.40918 300.161 9.71387 300.401 10.0713C300.647 10.4229 300.771 10.8535 300.771 11.3633C300.771 12.2129 300.431 12.8955 299.751 13.4111C299.071 13.9209 298.189 14.1758 297.105 14.1758C296.344 14.1758 295.67 14.041 295.084 13.7715C294.498 13.502 294.038 13.127 293.704 12.6465C293.376 12.1602 293.212 11.6357 293.212 11.0732H294.838C294.867 11.6182 295.084 12.0518 295.488 12.374C295.898 12.6904 296.438 12.8486 297.105 12.8486C297.721 12.8486 298.213 12.7256 298.582 12.4795C298.957 12.2275 299.145 11.8936 299.145 11.4775ZM305.095 2.1875V4.49023H306.87V5.74707H305.095V11.6445C305.095 12.0254 305.174 12.3125 305.332 12.5059C305.49 12.6934 305.76 12.7871 306.141 12.7871C306.328 12.7871 306.586 12.752 306.914 12.6816V14C306.486 14.1172 306.07 14.1758 305.666 14.1758C304.939 14.1758 304.392 13.9561 304.022 13.5166C303.653 13.0771 303.469 12.4531 303.469 11.6445V5.74707H301.737V4.49023H303.469V2.1875H305.095ZM312.724 14.1758C311.435 14.1758 310.386 13.7539 309.577 12.9102C308.769 12.0605 308.364 10.9268 308.364 9.50879V9.20996C308.364 8.2666 308.543 7.42578 308.9 6.6875C309.264 5.94336 309.768 5.36328 310.412 4.94727C311.062 4.52539 311.766 4.31445 312.521 4.31445C313.758 4.31445 314.719 4.72168 315.404 5.53613C316.09 6.35059 316.433 7.5166 316.433 9.03418V9.71094H309.99C310.014 10.6484 310.286 11.4072 310.808 11.9873C311.335 12.5615 312.003 12.8486 312.812 12.8486C313.386 12.8486 313.872 12.7314 314.271 12.4971C314.669 12.2627 315.018 11.9521 315.316 11.5654L316.31 12.3389C315.513 13.5635 314.317 14.1758 312.724 14.1758ZM312.521 5.65039C311.865 5.65039 311.314 5.89062 310.869 6.37109C310.424 6.8457 310.148 7.51367 310.043 8.375H314.807V8.25195C314.76 7.42578 314.537 6.78711 314.139 6.33594C313.74 5.87891 313.201 5.65039 312.521 5.65039ZM319.852 4.49023L319.896 5.54492C320.593 4.72461 321.533 4.31445 322.717 4.31445C324.047 4.31445 324.952 4.82422 325.433 5.84375C325.749 5.38672 326.159 5.01758 326.663 4.73633C327.173 4.45508 327.773 4.31445 328.465 4.31445C330.551 4.31445 331.611 5.41895 331.646 7.62793V14H330.021V7.72461C330.021 7.04492 329.865 6.53809 329.555 6.2041C329.244 5.86426 328.723 5.69434 327.99 5.69434C327.387 5.69434 326.886 5.87598 326.487 6.23926C326.089 6.59668 325.857 7.08008 325.793 7.68945V14H324.158V7.76855C324.158 6.38574 323.481 5.69434 322.128 5.69434C321.062 5.69434 320.332 6.14844 319.939 7.05664V14H318.313V4.49023H319.852Z" fill="white"/>
</svg>
