<svg width="60" height="18" viewBox="0 0 60 18" fill="none" xmlns="http://www.w3.org/2000/svg">
<path d="M10.3291 8.01465C10.3291 9.26855 10.1182 10.3643 9.69629 11.3018C9.27441 12.2334 8.67676 12.9453 7.90332 13.4375C7.12988 13.9297 6.22754 14.1758 5.19629 14.1758C4.18848 14.1758 3.29492 13.9297 2.51562 13.4375C1.73633 12.9395 1.12988 12.2334 0.696289 11.3193C0.268555 10.3994 0.0488281 9.33594 0.0371094 8.12891V7.20605C0.0371094 5.97559 0.250977 4.88867 0.678711 3.94531C1.10645 3.00195 1.70996 2.28125 2.48926 1.7832C3.27441 1.2793 4.1709 1.02734 5.17871 1.02734C6.2041 1.02734 7.10645 1.27637 7.88574 1.77441C8.6709 2.2666 9.27441 2.98438 9.69629 3.92773C10.1182 4.86523 10.3291 5.95801 10.3291 7.20605V8.01465ZM8.65039 7.18848C8.65039 5.6709 8.3457 4.50781 7.73633 3.69922C7.12695 2.88477 6.27441 2.47754 5.17871 2.47754C4.1123 2.47754 3.27148 2.88477 2.65625 3.69922C2.04688 4.50781 1.7334 5.63281 1.71582 7.07422V8.01465C1.71582 9.48535 2.02344 10.6426 2.63867 11.4863C3.25977 12.3242 4.1123 12.7432 5.19629 12.7432C6.28613 12.7432 7.12988 12.3477 7.72754 11.5566C8.3252 10.7598 8.63281 9.62012 8.65039 8.1377V7.18848ZM20.6562 9.35059C20.6562 10.8037 20.3223 11.9727 19.6543 12.8574C18.9863 13.7363 18.0898 14.1758 16.9648 14.1758C15.7637 14.1758 14.835 13.751 14.1787 12.9014L14.0996 14H12.6055V0.5H14.2314V5.53613C14.8877 4.72168 15.793 4.31445 16.9473 4.31445C18.1016 4.31445 19.0068 4.75098 19.6631 5.62402C20.3252 6.49707 20.6562 7.69238 20.6562 9.20996V9.35059ZM19.0303 9.16602C19.0303 8.05859 18.8164 7.20312 18.3887 6.59961C17.9609 5.99609 17.3457 5.69434 16.543 5.69434C15.4707 5.69434 14.7002 6.19238 14.2314 7.18848V11.3018C14.7295 12.2979 15.5059 12.7959 16.5605 12.7959C17.3398 12.7959 17.9463 12.4941 18.3799 11.8906C18.8135 11.2871 19.0303 10.3789 19.0303 9.16602ZM24.3916 4.49023V15.0986C24.3916 16.9268 23.5625 17.8408 21.9043 17.8408C21.5469 17.8408 21.2158 17.7881 20.9111 17.6826V16.3818C21.0986 16.4287 21.3447 16.4521 21.6494 16.4521C22.0127 16.4521 22.2881 16.3525 22.4756 16.1533C22.6689 15.96 22.7656 15.6201 22.7656 15.1338V4.49023H24.3916ZM22.5986 1.96777C22.5986 1.70996 22.6777 1.49023 22.8359 1.30859C23 1.12109 23.2373 1.02734 23.5479 1.02734C23.8643 1.02734 24.1045 1.11816 24.2686 1.2998C24.4326 1.48145 24.5146 1.7041 24.5146 1.96777C24.5146 2.23145 24.4326 2.45117 24.2686 2.62695C24.1045 2.80273 23.8643 2.89062 23.5479 2.89062C23.2314 2.89062 22.9941 2.80273 22.8359 2.62695C22.6777 2.45117 22.5986 2.23145 22.5986 1.96777ZM30.9658 14.1758C29.6768 14.1758 28.6279 13.7539 27.8193 12.9102C27.0107 12.0605 26.6064 10.9268 26.6064 9.50879V9.20996C26.6064 8.2666 26.7852 7.42578 27.1426 6.6875C27.5059 5.94336 28.0098 5.36328 28.6543 4.94727C29.3047 4.52539 30.0078 4.31445 30.7637 4.31445C32 4.31445 32.9609 4.72168 33.6465 5.53613C34.332 6.35059 34.6748 7.5166 34.6748 9.03418V9.71094H28.2324C28.2559 10.6484 28.5283 11.4072 29.0498 11.9873C29.5771 12.5615 30.2451 12.8486 31.0537 12.8486C31.6279 12.8486 32.1143 12.7314 32.5127 12.4971C32.9111 12.2627 33.2598 11.9521 33.5586 11.5654L34.5518 12.3389C33.7549 13.5635 32.5596 14.1758 30.9658 14.1758ZM30.7637 5.65039C30.1074 5.65039 29.5566 5.89062 29.1113 6.37109C28.666 6.8457 28.3906 7.51367 28.2852 8.375H33.0488V8.25195C33.002 7.42578 32.7793 6.78711 32.3809 6.33594C31.9824 5.87891 31.4434 5.65039 30.7637 5.65039ZM40.3789 12.8486C40.959 12.8486 41.4658 12.6729 41.8994 12.3213C42.333 11.9697 42.5732 11.5303 42.6201 11.0029H44.1582C44.1289 11.5479 43.9414 12.0664 43.5957 12.5586C43.25 13.0508 42.7871 13.4434 42.207 13.7363C41.6328 14.0293 41.0234 14.1758 40.3789 14.1758C39.084 14.1758 38.0527 13.7451 37.2852 12.8838C36.5234 12.0166 36.1426 10.833 36.1426 9.33301V9.06055C36.1426 8.13477 36.3125 7.31152 36.6523 6.59082C36.9922 5.87012 37.4785 5.31055 38.1113 4.91211C38.75 4.51367 39.5029 4.31445 40.3701 4.31445C41.4365 4.31445 42.3213 4.63379 43.0244 5.27246C43.7334 5.91113 44.1113 6.74023 44.1582 7.75977H42.6201C42.5732 7.14453 42.3389 6.64062 41.917 6.24805C41.501 5.84961 40.9854 5.65039 40.3701 5.65039C39.5439 5.65039 38.9023 5.94922 38.4453 6.54688C37.9941 7.13867 37.7686 7.99707 37.7686 9.12207V9.42969C37.7686 10.5254 37.9941 11.3691 38.4453 11.9609C38.8965 12.5527 39.541 12.8486 40.3789 12.8486ZM48.1924 2.1875V4.49023H49.9678V5.74707H48.1924V11.6445C48.1924 12.0254 48.2715 12.3125 48.4297 12.5059C48.5879 12.6934 48.8574 12.7871 49.2383 12.7871C49.4258 12.7871 49.6836 12.752 50.0117 12.6816V14C49.584 14.1172 49.168 14.1758 48.7637 14.1758C48.0371 14.1758 47.4893 13.9561 47.1201 13.5166C46.751 13.0771 46.5664 12.4531 46.5664 11.6445V5.74707H44.835V4.49023H46.5664V2.1875H48.1924ZM57.4121 11.4775C57.4121 11.0381 57.2451 10.6982 56.9111 10.458C56.583 10.2119 56.0059 10.001 55.1797 9.8252C54.3594 9.64941 53.7061 9.43848 53.2197 9.19238C52.7393 8.94629 52.3818 8.65332 52.1475 8.31348C51.9189 7.97363 51.8047 7.56934 51.8047 7.10059C51.8047 6.32129 52.1328 5.66211 52.7891 5.12305C53.4512 4.58398 54.2949 4.31445 55.3203 4.31445C56.3984 4.31445 57.2715 4.59277 57.9395 5.14941C58.6133 5.70605 58.9502 6.41797 58.9502 7.28516H57.3154C57.3154 6.83984 57.125 6.45605 56.7441 6.13379C56.3691 5.81152 55.8945 5.65039 55.3203 5.65039C54.7285 5.65039 54.2656 5.7793 53.9316 6.03711C53.5977 6.29492 53.4307 6.63184 53.4307 7.04785C53.4307 7.44043 53.5859 7.73633 53.8965 7.93555C54.207 8.13477 54.7666 8.3252 55.5752 8.50684C56.3896 8.68848 57.0488 8.90527 57.5527 9.15723C58.0566 9.40918 58.4287 9.71387 58.6689 10.0713C58.915 10.4229 59.0381 10.8535 59.0381 11.3633C59.0381 12.2129 58.6982 12.8955 58.0186 13.4111C57.3389 13.9209 56.457 14.1758 55.373 14.1758C54.6113 14.1758 53.9375 14.041 53.3516 13.7715C52.7656 13.502 52.3057 13.127 51.9717 12.6465C51.6436 12.1602 51.4795 11.6357 51.4795 11.0732H53.1055C53.1348 11.6182 53.3516 12.0518 53.7559 12.374C54.166 12.6904 54.7051 12.8486 55.373 12.8486C55.9883 12.8486 56.4805 12.7256 56.8496 12.4795C57.2246 12.2275 57.4121 11.8936 57.4121 11.4775Z" fill="#B3B3B3"/>
</svg>
