<svg width="46" height="13" viewBox="0 0 46 13" fill="none" xmlns="http://www.w3.org/2000/svg">
<path d="M4.37988 7.24658C3.17383 6.8999 2.29492 6.4751 1.74316 5.97217C1.19629 5.46436 0.922852 4.83936 0.922852 4.09717C0.922852 3.25732 1.25732 2.56396 1.92627 2.01709C2.6001 1.46533 3.47412 1.18945 4.54834 1.18945C5.28076 1.18945 5.93262 1.33105 6.50391 1.61426C7.08008 1.89746 7.52441 2.28809 7.83691 2.78613C8.1543 3.28418 8.31299 3.82861 8.31299 4.41943H6.89941C6.89941 3.7749 6.69434 3.26953 6.28418 2.90332C5.87402 2.53223 5.29541 2.34668 4.54834 2.34668C3.85498 2.34668 3.31299 2.50049 2.92236 2.80811C2.53662 3.11084 2.34375 3.5332 2.34375 4.0752C2.34375 4.50977 2.52686 4.87842 2.89307 5.18115C3.26416 5.479 3.8916 5.75244 4.77539 6.00146C5.66406 6.25049 6.35742 6.52637 6.85547 6.8291C7.3584 7.12695 7.72949 7.47607 7.96875 7.87646C8.21289 8.27686 8.33496 8.74805 8.33496 9.29004C8.33496 10.1543 7.99805 10.8477 7.32422 11.3701C6.65039 11.8877 5.74951 12.1465 4.62158 12.1465C3.88916 12.1465 3.20557 12.0073 2.5708 11.729C1.93604 11.4458 1.44531 11.0601 1.09863 10.5718C0.756836 10.0835 0.585938 9.5293 0.585938 8.90918H1.99951C1.99951 9.55371 2.23633 10.064 2.70996 10.4399C3.18848 10.811 3.82568 10.9966 4.62158 10.9966C5.36377 10.9966 5.93262 10.8452 6.32812 10.5425C6.72363 10.2397 6.92139 9.82715 6.92139 9.30469C6.92139 8.78223 6.73828 8.37939 6.37207 8.09619C6.00586 7.80811 5.3418 7.5249 4.37988 7.24658ZM13.2202 12.1465C12.146 12.1465 11.272 11.7949 10.5981 11.0918C9.92432 10.3838 9.5874 9.43896 9.5874 8.25732V8.0083C9.5874 7.22217 9.73633 6.52148 10.0342 5.90625C10.3369 5.28613 10.7568 4.80273 11.2939 4.45605C11.8359 4.10449 12.4219 3.92871 13.0518 3.92871C14.082 3.92871 14.8828 4.26807 15.4541 4.94678C16.0254 5.62549 16.311 6.59717 16.311 7.86182V8.42578H10.9424C10.9619 9.20703 11.189 9.83936 11.6235 10.3228C12.063 10.8013 12.6196 11.0405 13.2935 11.0405C13.772 11.0405 14.1772 10.9429 14.5093 10.7476C14.8413 10.5522 15.1318 10.2935 15.3809 9.97119L16.2085 10.6157C15.5444 11.6362 14.5483 12.1465 13.2202 12.1465ZM13.0518 5.04199C12.5049 5.04199 12.0459 5.24219 11.6748 5.64258C11.3037 6.03809 11.0742 6.59473 10.9863 7.3125H14.9561V7.20996C14.917 6.52148 14.7314 5.98926 14.3994 5.61328C14.0674 5.23242 13.6182 5.04199 13.0518 5.04199ZM22.7783 12C22.7002 11.8438 22.6367 11.5654 22.5879 11.165C21.958 11.8193 21.2061 12.1465 20.332 12.1465C19.5508 12.1465 18.9087 11.9268 18.4058 11.4873C17.9077 11.043 17.6587 10.4814 17.6587 9.80273C17.6587 8.97754 17.9712 8.33789 18.5962 7.88379C19.2261 7.4248 20.1099 7.19531 21.2476 7.19531H22.5659V6.57275C22.5659 6.09912 22.4243 5.72314 22.1411 5.44482C21.8579 5.16162 21.4404 5.02002 20.8887 5.02002C20.4053 5.02002 20 5.14209 19.6729 5.38623C19.3457 5.63037 19.1821 5.92578 19.1821 6.27246H17.8198C17.8198 5.87695 17.959 5.49609 18.2373 5.12988C18.5205 4.75879 18.9014 4.46582 19.3799 4.25098C19.8633 4.03613 20.3931 3.92871 20.9692 3.92871C21.8823 3.92871 22.5977 4.1582 23.1152 4.61719C23.6328 5.07129 23.9014 5.69873 23.9209 6.49951V10.147C23.9209 10.8745 24.0137 11.4531 24.1992 11.8828V12H22.7783ZM20.5298 10.9673C20.9546 10.9673 21.3574 10.8574 21.7383 10.6377C22.1191 10.418 22.395 10.1323 22.5659 9.78076V8.15479H21.5039C19.8438 8.15479 19.0137 8.64062 19.0137 9.6123C19.0137 10.0371 19.1553 10.3691 19.4385 10.6084C19.7217 10.8477 20.0854 10.9673 20.5298 10.9673ZM29.8755 5.29102C29.6704 5.25684 29.4482 5.23975 29.209 5.23975C28.3203 5.23975 27.7173 5.61816 27.3999 6.375V12H26.0449V4.0752H27.3633L27.3853 4.99072C27.8296 4.28271 28.4595 3.92871 29.2749 3.92871C29.5386 3.92871 29.7388 3.96289 29.8755 4.03125V5.29102ZM34.1602 11.0405C34.6436 11.0405 35.0659 10.894 35.4272 10.6011C35.7886 10.3081 35.9888 9.94189 36.0278 9.50244H37.3096C37.2852 9.95654 37.1289 10.3887 36.8408 10.7988C36.5527 11.209 36.167 11.5361 35.6836 11.7803C35.2051 12.0244 34.6973 12.1465 34.1602 12.1465C33.0811 12.1465 32.2217 11.7876 31.582 11.0698C30.9473 10.3472 30.6299 9.36084 30.6299 8.11084V7.88379C30.6299 7.1123 30.7715 6.42627 31.0547 5.82568C31.3379 5.2251 31.7432 4.75879 32.2705 4.42676C32.8027 4.09473 33.4302 3.92871 34.1528 3.92871C35.0415 3.92871 35.7788 4.19482 36.3647 4.72705C36.9556 5.25928 37.2705 5.9502 37.3096 6.7998H36.0278C35.9888 6.28711 35.7935 5.86719 35.4419 5.54004C35.0952 5.20801 34.6655 5.04199 34.1528 5.04199C33.4644 5.04199 32.9297 5.29102 32.5488 5.78906C32.1729 6.28223 31.9849 6.99756 31.9849 7.93506V8.19141C31.9849 9.10449 32.1729 9.80762 32.5488 10.3008C32.9248 10.7939 33.4619 11.0405 34.1602 11.0405ZM40.188 5.03467C40.7886 4.29736 41.5698 3.92871 42.5317 3.92871C44.2065 3.92871 45.0513 4.87354 45.0659 6.76318V12H43.7109V6.75586C43.7061 6.18457 43.5742 5.76221 43.3154 5.48877C43.0615 5.21533 42.6636 5.07861 42.1216 5.07861C41.6821 5.07861 41.2964 5.1958 40.9644 5.43018C40.6323 5.66455 40.3735 5.97217 40.188 6.35303V12H38.833V0.75H40.188V5.03467Z" fill="#2A2A2A"/>
</svg>
