<svg width="47" height="13" viewBox="0 0 47 13" fill="none" xmlns="http://www.w3.org/2000/svg">
<path d="M5.43359 8.61963C5.43359 8.23031 5.29606 7.90234 5.021 7.63574C4.75016 7.36914 4.29102 7.12793 3.64355 6.91211C2.74219 6.63704 2.08415 6.27946 1.66943 5.83936C1.25895 5.39502 1.05371 4.83219 1.05371 4.15088C1.05371 3.45687 1.25472 2.8877 1.65674 2.44336C2.06299 1.99902 2.61947 1.73454 3.32617 1.6499V0.259766H4.27197V1.65625C4.98291 1.75358 5.53516 2.05192 5.92871 2.55127C6.3265 3.05062 6.52539 3.73405 6.52539 4.60156H5.35742C5.35742 4.00488 5.21566 3.53092 4.93213 3.17969C4.6486 2.82845 4.26562 2.65283 3.7832 2.65283C3.27962 2.65283 2.89453 2.78402 2.62793 3.04639C2.36133 3.30452 2.22803 3.66634 2.22803 4.13184C2.22803 4.56348 2.36768 4.90837 2.64697 5.1665C2.9305 5.42041 3.39388 5.65316 4.03711 5.86475C4.68457 6.0721 5.18815 6.30273 5.54785 6.55664C5.91178 6.80632 6.17839 7.09831 6.34766 7.43262C6.52116 7.76693 6.60791 8.15837 6.60791 8.60693C6.60791 9.3221 6.39209 9.89762 5.96045 10.3335C5.53304 10.7694 4.93213 11.0275 4.15771 11.1079V12.3203H3.21826V11.1079C2.43115 11.036 1.81331 10.7567 1.36475 10.27C0.92041 9.77913 0.698242 9.11475 0.698242 8.27686H1.87256C1.87256 8.86507 2.02702 9.31787 2.33594 9.63525C2.64486 9.95264 3.08285 10.1113 3.6499 10.1113C4.20426 10.1113 4.64014 9.97803 4.95752 9.71143C5.2749 9.44482 5.43359 9.08089 5.43359 8.61963ZM11.9272 11H10.7466V3.17334L8.37891 4.04297V2.97656L11.7432 1.71338H11.9272V11ZM21.1631 7.05811C21.1631 8.43343 20.9282 9.4554 20.4585 10.124C19.9888 10.7926 19.2546 11.127 18.2559 11.127C17.2699 11.127 16.5399 10.8011 16.0659 10.1494C15.592 9.49349 15.3465 8.51595 15.3296 7.2168V5.64893C15.3296 4.29053 15.5645 3.28125 16.0342 2.62109C16.5039 1.96094 17.2402 1.63086 18.2432 1.63086C19.2376 1.63086 19.9697 1.95036 20.4395 2.58936C20.9092 3.22412 21.1504 4.20589 21.1631 5.53467V7.05811ZM19.9888 5.45215C19.9888 4.45768 19.8491 3.73405 19.5698 3.28125C19.2905 2.82422 18.8483 2.5957 18.2432 2.5957C17.6423 2.5957 17.2043 2.8221 16.9292 3.2749C16.6541 3.7277 16.5124 4.42383 16.5039 5.36328V7.24219C16.5039 8.24089 16.6478 8.97933 16.9355 9.45752C17.2275 9.93148 17.6676 10.1685 18.2559 10.1685C18.8356 10.1685 19.2651 9.94417 19.5444 9.49561C19.828 9.04704 19.9761 8.34033 19.9888 7.37549V5.45215ZM24.375 5.80762H25.2573C25.8117 5.79915 26.2476 5.65316 26.5649 5.36963C26.8823 5.0861 27.041 4.70312 27.041 4.2207C27.041 3.13737 26.5015 2.5957 25.4224 2.5957C24.9146 2.5957 24.5083 2.7417 24.2036 3.03369C23.9032 3.32145 23.7529 3.70443 23.7529 4.18262H22.5786C22.5786 3.45052 22.8452 2.84326 23.3784 2.36084C23.9159 1.87419 24.5972 1.63086 25.4224 1.63086C26.2941 1.63086 26.9775 1.86149 27.4727 2.32275C27.9678 2.78402 28.2153 3.42513 28.2153 4.24609C28.2153 4.64811 28.0841 5.03743 27.8218 5.41406C27.5636 5.79069 27.2103 6.0721 26.7617 6.2583C27.2695 6.41911 27.661 6.68571 27.936 7.05811C28.2153 7.4305 28.355 7.88542 28.355 8.42285C28.355 9.25228 28.0841 9.91032 27.5425 10.397C27.0008 10.8836 26.2962 11.127 25.4287 11.127C24.5612 11.127 23.8545 10.8921 23.3086 10.4224C22.7669 9.95264 22.4961 9.33268 22.4961 8.5625H23.6768C23.6768 9.04915 23.8354 9.43848 24.1528 9.73047C24.4702 10.0225 24.8955 10.1685 25.4287 10.1685C25.9958 10.1685 26.4295 10.0203 26.73 9.72412C27.0304 9.4279 27.1807 9.0026 27.1807 8.44824C27.1807 7.91081 27.0156 7.49821 26.6855 7.21045C26.3555 6.92269 25.8794 6.77458 25.2573 6.76611H24.375V5.80762ZM30.1133 10.3843C30.1133 10.1812 30.1725 10.0119 30.291 9.87646C30.4137 9.74105 30.5957 9.67334 30.8369 9.67334C31.0781 9.67334 31.2601 9.74105 31.3828 9.87646C31.5098 10.0119 31.5732 10.1812 31.5732 10.3843C31.5732 10.5789 31.5098 10.7419 31.3828 10.873C31.2601 11.0042 31.0781 11.0698 30.8369 11.0698C30.5957 11.0698 30.4137 11.0042 30.291 10.873C30.1725 10.7419 30.1133 10.5789 30.1133 10.3843ZM39.1904 7.05811C39.1904 8.43343 38.9556 9.4554 38.4858 10.124C38.0161 10.7926 37.2819 11.127 36.2832 11.127C35.2972 11.127 34.5672 10.8011 34.0933 10.1494C33.6193 9.49349 33.3739 8.51595 33.3569 7.2168V5.64893C33.3569 4.29053 33.5918 3.28125 34.0615 2.62109C34.5312 1.96094 35.2676 1.63086 36.2705 1.63086C37.265 1.63086 37.9971 1.95036 38.4668 2.58936C38.9365 3.22412 39.1777 4.20589 39.1904 5.53467V7.05811ZM38.0161 5.45215C38.0161 4.45768 37.8765 3.73405 37.5972 3.28125C37.3179 2.82422 36.8757 2.5957 36.2705 2.5957C35.6696 2.5957 35.2316 2.8221 34.9565 3.2749C34.6815 3.7277 34.5397 4.42383 34.5312 5.36328V7.24219C34.5312 8.24089 34.6751 8.97933 34.9629 9.45752C35.2549 9.93148 35.695 10.1685 36.2832 10.1685C36.863 10.1685 37.2925 9.94417 37.5718 9.49561C37.8553 9.04704 38.0034 8.34033 38.0161 7.37549V5.45215ZM46.4902 7.05811C46.4902 8.43343 46.2554 9.4554 45.7856 10.124C45.3159 10.7926 44.5817 11.127 43.583 11.127C42.597 11.127 41.867 10.8011 41.3931 10.1494C40.9191 9.49349 40.6737 8.51595 40.6567 7.2168V5.64893C40.6567 4.29053 40.8916 3.28125 41.3613 2.62109C41.8311 1.96094 42.5674 1.63086 43.5703 1.63086C44.5648 1.63086 45.2969 1.95036 45.7666 2.58936C46.2363 3.22412 46.4775 4.20589 46.4902 5.53467V7.05811ZM45.3159 5.45215C45.3159 4.45768 45.1763 3.73405 44.897 3.28125C44.6177 2.82422 44.1755 2.5957 43.5703 2.5957C42.9694 2.5957 42.5314 2.8221 42.2563 3.2749C41.9813 3.7277 41.8395 4.42383 41.8311 5.36328V7.24219C41.8311 8.24089 41.9749 8.97933 42.2627 9.45752C42.5547 9.93148 42.9948 10.1685 43.583 10.1685C44.1628 10.1685 44.5923 9.94417 44.8716 9.49561C45.1551 9.04704 45.3032 8.34033 45.3159 7.37549V5.45215Z" fill="#808080"/>
</svg>
