<svg width="52" height="17" viewBox="0 0 52 17" fill="none" xmlns="http://www.w3.org/2000/svg">
<path d="M8.07666 9.8457H3.01318L1.87598 13H0.232422L4.84766 0.914062H6.24219L10.8657 13H9.23047L8.07666 9.8457ZM3.49463 8.53418H7.60352L5.54492 2.88135L3.49463 8.53418ZM13.7046 4.01855L13.7544 5.14746C14.4406 4.28418 15.3371 3.85254 16.4438 3.85254C18.342 3.85254 19.2993 4.92334 19.3159 7.06494V13H17.7803V7.05664C17.7747 6.40918 17.6253 5.9305 17.332 5.62061C17.0443 5.31071 16.5933 5.15576 15.979 5.15576C15.481 5.15576 15.0438 5.28857 14.6675 5.5542C14.2912 5.81982 13.9979 6.16846 13.7876 6.6001V13H12.252V4.01855H13.7046ZM27.1768 13C27.0882 12.8229 27.0163 12.5075 26.9609 12.0537C26.2471 12.7952 25.3949 13.166 24.4043 13.166C23.5189 13.166 22.7912 12.917 22.2212 12.4189C21.6567 11.9154 21.3745 11.279 21.3745 10.5098C21.3745 9.57454 21.7287 8.84961 22.437 8.33496C23.1509 7.81478 24.1525 7.55469 25.4419 7.55469H26.936V6.84912C26.936 6.31234 26.7756 5.88623 26.4546 5.5708C26.1336 5.24984 25.6605 5.08936 25.0352 5.08936C24.4873 5.08936 24.028 5.2277 23.6572 5.50439C23.2865 5.78109 23.1011 6.11589 23.1011 6.50879H21.5571C21.5571 6.06055 21.7148 5.62891 22.0303 5.21387C22.3512 4.79329 22.7829 4.46126 23.3252 4.21777C23.873 3.97428 24.4735 3.85254 25.1265 3.85254C26.1613 3.85254 26.972 4.11263 27.5586 4.63281C28.1452 5.14746 28.4495 5.85856 28.4717 6.76611V10.8999C28.4717 11.7244 28.5768 12.3802 28.7871 12.8672V13H27.1768ZM24.6284 11.8296C25.1099 11.8296 25.5664 11.7051 25.998 11.4561C26.4297 11.207 26.7424 10.8833 26.936 10.4849V8.64209H25.7324C23.8509 8.64209 22.9102 9.19271 22.9102 10.2939C22.9102 10.7754 23.0706 11.1517 23.3916 11.4229C23.7126 11.694 24.1248 11.8296 24.6284 11.8296ZM32.5474 13H31.0117V0.25H32.5474V13ZM34.606 8.42627C34.606 7.54639 34.7775 6.75505 35.1206 6.05225C35.4692 5.34945 35.9507 4.80713 36.5649 4.42529C37.1847 4.04346 37.8903 3.85254 38.6816 3.85254C39.9046 3.85254 40.8924 4.27588 41.645 5.12256C42.4032 5.96924 42.7822 7.09538 42.7822 8.50098V8.60889C42.7822 9.48324 42.6134 10.269 42.2759 10.9663C41.9438 11.658 41.4652 12.1976 40.8398 12.585C40.2201 12.9723 39.5062 13.166 38.6982 13.166C37.4808 13.166 36.493 12.7427 35.7349 11.896C34.9823 11.0493 34.606 9.92871 34.606 8.53418V8.42627ZM36.1499 8.60889C36.1499 9.60498 36.3796 10.4046 36.8389 11.0078C37.3037 11.611 37.9235 11.9126 38.6982 11.9126C39.4785 11.9126 40.0983 11.6082 40.5576 10.9995C41.0169 10.3853 41.2466 9.52751 41.2466 8.42627C41.2466 7.44124 41.0114 6.64437 40.541 6.03564C40.0762 5.42139 39.4564 5.11426 38.6816 5.11426C37.9235 5.11426 37.312 5.41585 36.8472 6.01904C36.3823 6.62223 36.1499 7.48551 36.1499 8.60889ZM44.3428 8.43457C44.3428 7.03451 44.6665 5.9222 45.314 5.09766C45.9614 4.26758 46.8192 3.85254 47.8872 3.85254C48.9829 3.85254 49.8379 4.23991 50.4521 5.01465L50.5269 4.01855H51.9297V12.7842C51.9297 13.9463 51.5838 14.8621 50.8921 15.5317C50.2059 16.2013 49.2817 16.5361 48.1196 16.5361C47.4722 16.5361 46.8385 16.3978 46.2188 16.1211C45.599 15.8444 45.1258 15.4653 44.7993 14.9839L45.5962 14.0625C46.2547 14.876 47.0599 15.2827 48.0117 15.2827C48.7588 15.2827 49.3398 15.0724 49.7549 14.6519C50.1755 14.2313 50.3857 13.6392 50.3857 12.8755V12.1035C49.7715 12.8118 48.9331 13.166 47.8706 13.166C46.8192 13.166 45.967 12.7427 45.314 11.896C44.6665 11.0493 44.3428 9.89551 44.3428 8.43457ZM45.8867 8.60889C45.8867 9.62158 46.0942 10.4185 46.5093 10.9995C46.9243 11.575 47.5054 11.8628 48.2524 11.8628C49.2209 11.8628 49.932 11.4229 50.3857 10.543V6.44238C49.9154 5.58464 49.2098 5.15576 48.269 5.15576C47.522 5.15576 46.9382 5.44629 46.5176 6.02734C46.097 6.6084 45.8867 7.46891 45.8867 8.60889Z" fill="#B3B3B3"/>
</svg>
