<svg width="94" height="14" viewBox="0 0 94 14" fill="none" xmlns="http://www.w3.org/2000/svg">
<path d="M9.69141 13H8.08936L2.00488 3.68652V13H0.402832V0.914062H2.00488L8.10596 10.269V0.914062H9.69141V13ZM16.0083 13.166C14.7909 13.166 13.8003 12.7676 13.0366 11.9707C12.2729 11.1683 11.8911 10.0975 11.8911 8.7583V8.47607C11.8911 7.58512 12.0599 6.79102 12.3975 6.09375C12.7406 5.39095 13.2165 4.8431 13.8252 4.4502C14.4395 4.05176 15.1035 3.85254 15.8174 3.85254C16.985 3.85254 17.8926 4.23714 18.54 5.00635C19.1875 5.77555 19.5112 6.87679 19.5112 8.31006V8.94922H13.4268C13.4489 9.83464 13.7062 10.5513 14.1987 11.0991C14.6968 11.6414 15.3276 11.9126 16.0913 11.9126C16.6336 11.9126 17.0929 11.8019 17.4692 11.5806C17.8455 11.3592 18.1748 11.0659 18.457 10.7007L19.395 11.4312C18.6424 12.5877 17.5135 13.166 16.0083 13.166ZM15.8174 5.11426C15.1976 5.11426 14.6774 5.34115 14.2568 5.79492C13.8363 6.24316 13.5762 6.87402 13.4766 7.6875H17.9756V7.57129C17.9313 6.79102 17.721 6.18783 17.3447 5.76172C16.9684 5.33008 16.4593 5.11426 15.8174 5.11426ZM29.248 10.8833L30.9746 4.01855H32.5103L29.8955 13H28.6504L26.4673 6.19336L24.3423 13H23.0972L20.4907 4.01855H22.0181L23.7861 10.7422L25.8779 4.01855H27.1147L29.248 10.8833ZM45.2104 9.8457H40.147L39.0098 13H37.3662L41.9814 0.914062H43.376L47.9995 13H46.3643L45.2104 9.8457ZM40.6284 8.53418H44.7373L42.6787 2.88135L40.6284 8.53418ZM53.7271 5.39648C53.4946 5.35775 53.2428 5.33838 52.9717 5.33838C51.9645 5.33838 51.2811 5.76725 50.9214 6.625V13H49.3857V4.01855H50.8799L50.9048 5.05615C51.4084 4.25374 52.1222 3.85254 53.0464 3.85254C53.3452 3.85254 53.5721 3.89128 53.7271 3.96875V5.39648ZM59.4878 5.39648C59.2554 5.35775 59.0036 5.33838 58.7324 5.33838C57.7253 5.33838 57.0418 5.76725 56.6821 6.625V13H55.1465V4.01855H56.6406L56.6655 5.05615C57.1691 4.25374 57.883 3.85254 58.8071 3.85254C59.106 3.85254 59.3328 3.89128 59.4878 3.96875V5.39648ZM62.5757 13H61.04V4.01855H62.5757V13ZM60.9155 1.63623C60.9155 1.38721 60.9902 1.17692 61.1396 1.00537C61.2946 0.833822 61.5215 0.748047 61.8203 0.748047C62.1191 0.748047 62.346 0.833822 62.501 1.00537C62.6559 1.17692 62.7334 1.38721 62.7334 1.63623C62.7334 1.88525 62.6559 2.09277 62.501 2.25879C62.346 2.4248 62.1191 2.50781 61.8203 2.50781C61.5215 2.50781 61.2946 2.4248 61.1396 2.25879C60.9902 2.09277 60.9155 1.88525 60.9155 1.63623ZM68.0044 10.9165L70.229 4.01855H71.7979L68.5771 13H67.4067L64.1528 4.01855H65.7217L68.0044 10.9165ZM78.6875 13C78.599 12.8229 78.527 12.5075 78.4717 12.0537C77.7578 12.7952 76.9056 13.166 75.915 13.166C75.0296 13.166 74.3019 12.917 73.7319 12.4189C73.1675 11.9154 72.8853 11.279 72.8853 10.5098C72.8853 9.57454 73.2394 8.84961 73.9478 8.33496C74.6616 7.81478 75.6632 7.55469 76.9526 7.55469H78.4468V6.84912C78.4468 6.31234 78.2863 5.88623 77.9653 5.5708C77.6444 5.24984 77.1712 5.08936 76.5459 5.08936C75.998 5.08936 75.5387 5.2277 75.168 5.50439C74.7972 5.78109 74.6118 6.11589 74.6118 6.50879H73.0679C73.0679 6.06055 73.2256 5.62891 73.541 5.21387C73.862 4.79329 74.2936 4.46126 74.8359 4.21777C75.3838 3.97428 75.9842 3.85254 76.6372 3.85254C77.672 3.85254 78.4827 4.11263 79.0693 4.63281C79.6559 5.14746 79.9603 5.85856 79.9824 6.76611V10.8999C79.9824 11.7244 80.0876 12.3802 80.2979 12.8672V13H78.6875ZM76.1392 11.8296C76.6206 11.8296 77.0771 11.7051 77.5088 11.4561C77.9404 11.207 78.2531 10.8833 78.4468 10.4849V8.64209H77.2432C75.3617 8.64209 74.4209 9.19271 74.4209 10.2939C74.4209 10.7754 74.5814 11.1517 74.9023 11.4229C75.2233 11.694 75.6356 11.8296 76.1392 11.8296ZM84.0581 13H82.5225V0.25H84.0581V13ZM91.7529 10.6177C91.7529 10.2026 91.5952 9.88167 91.2798 9.65479C90.9699 9.42236 90.4248 9.22314 89.6445 9.05713C88.8698 8.89111 88.2528 8.69189 87.7935 8.45947C87.3397 8.22705 87.0021 7.95036 86.7808 7.62939C86.5649 7.30843 86.457 6.9266 86.457 6.48389C86.457 5.74788 86.7669 5.12533 87.3867 4.61621C88.012 4.1071 88.8089 3.85254 89.7773 3.85254C90.7956 3.85254 91.6201 4.1154 92.251 4.64111C92.8874 5.16683 93.2056 5.83919 93.2056 6.6582H91.6616C91.6616 6.23763 91.4818 5.87516 91.1221 5.5708C90.7679 5.26644 90.3197 5.11426 89.7773 5.11426C89.2184 5.11426 88.7812 5.236 88.4658 5.47949C88.1504 5.72298 87.9927 6.04118 87.9927 6.43408C87.9927 6.80485 88.1393 7.08431 88.4326 7.27246C88.7259 7.46061 89.2544 7.64046 90.0181 7.81201C90.7873 7.98356 91.4098 8.18831 91.8857 8.42627C92.3617 8.66423 92.7131 8.95199 92.9399 9.28955C93.1724 9.62158 93.2886 10.0283 93.2886 10.5098C93.2886 11.3122 92.9676 11.9569 92.3257 12.4438C91.6838 12.9253 90.8509 13.166 89.8271 13.166C89.1077 13.166 88.4714 13.0387 87.918 12.7842C87.3646 12.5296 86.9302 12.1755 86.6147 11.7217C86.3049 11.2624 86.1499 10.7671 86.1499 10.2358H87.6855C87.7132 10.7505 87.918 11.16 88.2998 11.4644C88.6872 11.7632 89.1963 11.9126 89.8271 11.9126C90.4082 11.9126 90.873 11.7964 91.2217 11.564C91.5758 11.326 91.7529 11.0106 91.7529 10.6177Z" fill="#1A1A1A"/>
</svg>
