<svg width="66" height="16" viewBox="0 0 66 16" fill="none" xmlns="http://www.w3.org/2000/svg">
<path d="M4.37988 7.24658C3.17383 6.8999 2.29492 6.4751 1.74316 5.97217C1.19629 5.46436 0.922852 4.83936 0.922852 4.09717C0.922852 3.25732 1.25732 2.56396 1.92627 2.01709C2.6001 1.46533 3.47412 1.18945 4.54834 1.18945C5.28076 1.18945 5.93262 1.33105 6.50391 1.61426C7.08008 1.89746 7.52441 2.28809 7.83691 2.78613C8.1543 3.28418 8.31299 3.82861 8.31299 4.41943H6.89941C6.89941 3.7749 6.69434 3.26953 6.28418 2.90332C5.87402 2.53223 5.29541 2.34668 4.54834 2.34668C3.85498 2.34668 3.31299 2.50049 2.92236 2.80811C2.53662 3.11084 2.34375 3.5332 2.34375 4.0752C2.34375 4.50977 2.52686 4.87842 2.89307 5.18115C3.26416 5.479 3.8916 5.75244 4.77539 6.00146C5.66406 6.25049 6.35742 6.52637 6.85547 6.8291C7.3584 7.12695 7.72949 7.47607 7.96875 7.87646C8.21289 8.27686 8.33496 8.74805 8.33496 9.29004C8.33496 10.1543 7.99805 10.8477 7.32422 11.3701C6.65039 11.8877 5.74951 12.1465 4.62158 12.1465C3.88916 12.1465 3.20557 12.0073 2.5708 11.729C1.93604 11.4458 1.44531 11.0601 1.09863 10.5718C0.756836 10.0835 0.585938 9.5293 0.585938 8.90918H1.99951C1.99951 9.55371 2.23633 10.064 2.70996 10.4399C3.18848 10.811 3.82568 10.9966 4.62158 10.9966C5.36377 10.9966 5.93262 10.8452 6.32812 10.5425C6.72363 10.2397 6.92139 9.82715 6.92139 9.30469C6.92139 8.78223 6.73828 8.37939 6.37207 8.09619C6.00586 7.80811 5.3418 7.5249 4.37988 7.24658ZM11.2866 5.03467C11.8872 4.29736 12.6685 3.92871 13.6304 3.92871C15.3052 3.92871 16.1499 4.87354 16.1646 6.76318V12H14.8096V6.75586C14.8047 6.18457 14.6729 5.76221 14.4141 5.48877C14.1602 5.21533 13.7622 5.07861 13.2202 5.07861C12.7808 5.07861 12.395 5.1958 12.063 5.43018C11.731 5.66455 11.4722 5.97217 11.2866 6.35303V12H9.93164V0.75H11.2866V5.03467ZM17.8345 7.96436C17.8345 7.18799 17.9858 6.48975 18.2886 5.86963C18.5962 5.24951 19.021 4.771 19.563 4.43408C20.1099 4.09717 20.7324 3.92871 21.4307 3.92871C22.5098 3.92871 23.3813 4.30225 24.0454 5.04932C24.7144 5.79639 25.0488 6.79004 25.0488 8.03027V8.12549C25.0488 8.89697 24.8999 9.59033 24.6021 10.2056C24.3091 10.8159 23.8867 11.292 23.335 11.6338C22.7881 11.9756 22.1582 12.1465 21.4453 12.1465C20.3711 12.1465 19.4995 11.7729 18.8306 11.0259C18.1665 10.2788 17.8345 9.29004 17.8345 8.05957V7.96436ZM19.1968 8.12549C19.1968 9.00439 19.3994 9.70996 19.8047 10.2422C20.2148 10.7744 20.7617 11.0405 21.4453 11.0405C22.1338 11.0405 22.6807 10.772 23.0859 10.2349C23.4912 9.69287 23.6938 8.93604 23.6938 7.96436C23.6938 7.09521 23.4863 6.39209 23.0713 5.85498C22.6611 5.31299 22.1143 5.04199 21.4307 5.04199C20.7617 5.04199 20.2222 5.30811 19.812 5.84033C19.4019 6.37256 19.1968 7.13428 19.1968 8.12549ZM33.4424 8.12549C33.4424 9.33154 33.1665 10.3032 32.6147 11.0405C32.063 11.7778 31.3159 12.1465 30.3735 12.1465C29.4116 12.1465 28.6548 11.8413 28.103 11.231V15.0469H26.748V4.0752H27.9858L28.0518 4.9541C28.6035 4.27051 29.3701 3.92871 30.3516 3.92871C31.3037 3.92871 32.0557 4.2876 32.6074 5.00537C33.1641 5.72314 33.4424 6.72168 33.4424 8.00098V8.12549ZM32.0874 7.97168C32.0874 7.07812 31.897 6.37256 31.5161 5.85498C31.1353 5.3374 30.6128 5.07861 29.9487 5.07861C29.1284 5.07861 28.5132 5.44238 28.103 6.16992V9.95654C28.5083 10.6792 29.1284 11.0405 29.9634 11.0405C30.6128 11.0405 31.1279 10.7842 31.5088 10.2715C31.8945 9.75391 32.0874 8.9873 32.0874 7.97168ZM40.1733 4.0752L40.2173 5.07129C40.8228 4.30957 41.6138 3.92871 42.5903 3.92871C44.2651 3.92871 45.1099 4.87354 45.1245 6.76318V12H43.7695V6.75586C43.7646 6.18457 43.6328 5.76221 43.374 5.48877C43.1201 5.21533 42.7222 5.07861 42.1802 5.07861C41.7407 5.07861 41.355 5.1958 41.0229 5.43018C40.6909 5.66455 40.4321 5.97217 40.2466 6.35303V12H38.8916V4.0752H40.1733ZM46.8091 7.96436C46.8091 7.18799 46.9604 6.48975 47.2632 5.86963C47.5708 5.24951 47.9956 4.771 48.5376 4.43408C49.0845 4.09717 49.707 3.92871 50.4053 3.92871C51.4844 3.92871 52.356 4.30225 53.02 5.04932C53.689 5.79639 54.0234 6.79004 54.0234 8.03027V8.12549C54.0234 8.89697 53.8745 9.59033 53.5767 10.2056C53.2837 10.8159 52.8613 11.292 52.3096 11.6338C51.7627 11.9756 51.1328 12.1465 50.4199 12.1465C49.3457 12.1465 48.4741 11.7729 47.8052 11.0259C47.1411 10.2788 46.8091 9.29004 46.8091 8.05957V7.96436ZM48.1714 8.12549C48.1714 9.00439 48.374 9.70996 48.7793 10.2422C49.1895 10.7744 49.7363 11.0405 50.4199 11.0405C51.1084 11.0405 51.6553 10.772 52.0605 10.2349C52.4658 9.69287 52.6685 8.93604 52.6685 7.96436C52.6685 7.09521 52.4609 6.39209 52.0459 5.85498C51.6357 5.31299 51.0889 5.04199 50.4053 5.04199C49.7363 5.04199 49.1968 5.30811 48.7866 5.84033C48.3765 6.37256 48.1714 7.13428 48.1714 8.12549ZM62.7393 10.1323L64.2627 4.0752H65.6177L63.3105 12H62.2119L60.2856 5.99414L58.4106 12H57.312L55.0122 4.0752H56.3599L57.9199 10.0078L59.7656 4.0752H60.8569L62.7393 10.1323Z" fill="white"/>
</svg>
