<svg width="4" height="4" viewBox="0 0 4 4" fill="none" xmlns="http://www.w3.org/2000/svg">
<path d="M3.6517 2.22979C3.6517 2.57536 3.55962 2.91316 3.38711 3.20049C3.2146 3.48782 2.9694 3.71176 2.68252 3.844C2.39564 3.97625 2.07997 4.01085 1.77542 3.94343C1.47087 3.87601 1.19113 3.70961 0.971559 3.46526C0.751992 3.2209 0.602465 2.90958 0.541886 2.57066C0.481308 2.23173 0.512399 1.88042 0.631228 1.56116C0.750057 1.2419 0.951287 0.969026 1.20947 0.77704C1.46765 0.585054 1.7712 0.482582 2.08171 0.482582C2.28788 0.482582 2.49204 0.527775 2.68252 0.615581C2.873 0.703386 3.04607 0.832084 3.19186 0.994328C3.33765 1.15657 3.45329 1.34918 3.53219 1.56116C3.61109 1.77315 3.6517 2.00035 3.6517 2.22979Z" fill="black"/>
</svg>
