<svg width="4" height="4" viewBox="0 0 4 4" fill="none" xmlns="http://www.w3.org/2000/svg">
<path d="M3.2955 2.25115C3.2955 2.59671 3.20342 2.93452 3.03091 3.22185C2.85839 3.50917 2.61319 3.73312 2.32632 3.86536C2.03944 3.9976 1.72377 4.0322 1.41922 3.96479C1.11467 3.89737 0.834925 3.73097 0.615358 3.48661C0.395791 3.24226 0.246263 2.93094 0.185685 2.59201C0.125107 2.25309 0.156198 1.90178 0.275027 1.58252C0.393856 1.26326 0.595086 0.990381 0.853269 0.798394C1.11145 0.606408 1.41499 0.503937 1.72551 0.503937C2.14183 0.504174 2.54104 0.688331 2.83542 1.01595C3.12981 1.34356 3.29528 1.78783 3.2955 2.25115Z" fill="black"/>
</svg>
